<?xml version="1.0" encoding="utf-8" standalone="no"?>
<!DOCTYPE svg PUBLIC "-//W3C//DTD SVG 1.1//EN"
  "http://www.w3.org/Graphics/SVG/1.1/DTD/svg11.dtd">
<!-- Created with matplotlib (http://matplotlib.org/) -->
<svg height="432pt" version="1.1" viewBox="0 0 1008 432" width="1008pt" xmlns="http://www.w3.org/2000/svg" xmlns:xlink="http://www.w3.org/1999/xlink">
 <defs>
  <style type="text/css">
*{stroke-linecap:butt;stroke-linejoin:round;}
  </style>
 </defs>
 <g id="figure_1">
  <g id="patch_1">
   <path d="M 0 432 
L 1008 432 
L 1008 0 
L 0 0 
z
" style="fill:#ffffff;"/>
  </g>
  <g id="axes_1">
   <g id="patch_2">
    <path d="M 100.8 388.8 
L 705.6 388.8 
L 705.6 64.8 
L 100.8 64.8 
z
" style="fill:#ffffff;"/>
   </g>
   <g id="matplotlib.axis_1">
    <g id="xtick_1">
     <g id="line2d_1">
      <path clip-path="url(#p4edcb29d99)" d="M 128.290909 388.8 
L 128.290909 64.8 
" style="fill:none;stroke:#b0b0b0;stroke-linecap:square;stroke-width:0.8;"/>
     </g>
     <g id="line2d_2">
      <defs>
       <path d="M 0 0 
L 0 3.5 
" id="mc7c305e051" style="stroke:#000000;stroke-width:0.8;"/>
      </defs>
      <g>
       <use style="stroke:#000000;stroke-width:0.8;" x="128.290909" xlink:href="#mc7c305e051" y="388.8"/>
      </g>
     </g>
     <g id="text_1">
      <!-- 0 -->
      <defs>
       <path d="M 31.78125 66.40625 
Q 24.171875 66.40625 20.328125 58.90625 
Q 16.5 51.421875 16.5 36.375 
Q 16.5 21.390625 20.328125 13.890625 
Q 24.171875 6.390625 31.78125 6.390625 
Q 39.453125 6.390625 43.28125 13.890625 
Q 47.125 21.390625 47.125 36.375 
Q 47.125 51.421875 43.28125 58.90625 
Q 39.453125 66.40625 31.78125 66.40625 
M 31.78125 74.21875 
Q 44.046875 74.21875 50.515625 64.515625 
Q 56.984375 54.828125 56.984375 36.375 
Q 56.984375 17.96875 50.515625 8.265625 
Q 44.046875 -1.421875 31.78125 -1.421875 
Q 19.53125 -1.421875 13.0625 8.265625 
Q 6.59375 17.96875 6.59375 36.375 
Q 6.59375 54.828125 13.0625 64.515625 
Q 19.53125 74.21875 31.78125 74.21875 
" id="DejaVuSans-30"/>
      </defs>
      <g transform="translate(125.109659 403.398438)scale(0.1 -0.1)">
       <use xlink:href="#DejaVuSans-30"/>
      </g>
     </g>
    </g>
    <g id="xtick_2">
     <g id="line2d_3">
      <path clip-path="url(#p4edcb29d99)" d="M 210.156603 388.8 
L 210.156603 64.8 
" style="fill:none;stroke:#b0b0b0;stroke-linecap:square;stroke-width:0.8;"/>
     </g>
     <g id="line2d_4">
      <g>
       <use style="stroke:#000000;stroke-width:0.8;" x="210.156603" xlink:href="#mc7c305e051" y="388.8"/>
      </g>
     </g>
     <g id="text_2">
      <!-- 2 -->
      <defs>
       <path d="M 19.1875 8.296875 
L 53.609375 8.296875 
L 53.609375 0 
L 7.328125 0 
L 7.328125 8.296875 
Q 12.9375 14.109375 22.625 23.890625 
Q 32.328125 33.6875 34.8125 36.53125 
Q 39.546875 41.84375 41.421875 45.53125 
Q 43.3125 49.21875 43.3125 52.78125 
Q 43.3125 58.59375 39.234375 62.25 
Q 35.15625 65.921875 28.609375 65.921875 
Q 23.96875 65.921875 18.8125 64.3125 
Q 13.671875 62.703125 7.8125 59.421875 
L 7.8125 69.390625 
Q 13.765625 71.78125 18.9375 73 
Q 24.125 74.21875 28.421875 74.21875 
Q 39.75 74.21875 46.484375 68.546875 
Q 53.21875 62.890625 53.21875 53.421875 
Q 53.21875 48.921875 51.53125 44.890625 
Q 49.859375 40.875 45.40625 35.40625 
Q 44.1875 33.984375 37.640625 27.21875 
Q 31.109375 20.453125 19.1875 8.296875 
" id="DejaVuSans-32"/>
      </defs>
      <g transform="translate(206.975353 403.398438)scale(0.1 -0.1)">
       <use xlink:href="#DejaVuSans-32"/>
      </g>
     </g>
    </g>
    <g id="xtick_3">
     <g id="line2d_5">
      <path clip-path="url(#p4edcb29d99)" d="M 292.022296 388.8 
L 292.022296 64.8 
" style="fill:none;stroke:#b0b0b0;stroke-linecap:square;stroke-width:0.8;"/>
     </g>
     <g id="line2d_6">
      <g>
       <use style="stroke:#000000;stroke-width:0.8;" x="292.022296" xlink:href="#mc7c305e051" y="388.8"/>
      </g>
     </g>
     <g id="text_3">
      <!-- 4 -->
      <defs>
       <path d="M 37.796875 64.3125 
L 12.890625 25.390625 
L 37.796875 25.390625 
z
M 35.203125 72.90625 
L 47.609375 72.90625 
L 47.609375 25.390625 
L 58.015625 25.390625 
L 58.015625 17.1875 
L 47.609375 17.1875 
L 47.609375 0 
L 37.796875 0 
L 37.796875 17.1875 
L 4.890625 17.1875 
L 4.890625 26.703125 
z
" id="DejaVuSans-34"/>
      </defs>
      <g transform="translate(288.841046 403.398438)scale(0.1 -0.1)">
       <use xlink:href="#DejaVuSans-34"/>
      </g>
     </g>
    </g>
    <g id="xtick_4">
     <g id="line2d_7">
      <path clip-path="url(#p4edcb29d99)" d="M 373.887989 388.8 
L 373.887989 64.8 
" style="fill:none;stroke:#b0b0b0;stroke-linecap:square;stroke-width:0.8;"/>
     </g>
     <g id="line2d_8">
      <g>
       <use style="stroke:#000000;stroke-width:0.8;" x="373.887989" xlink:href="#mc7c305e051" y="388.8"/>
      </g>
     </g>
     <g id="text_4">
      <!-- 6 -->
      <defs>
       <path d="M 33.015625 40.375 
Q 26.375 40.375 22.484375 35.828125 
Q 18.609375 31.296875 18.609375 23.390625 
Q 18.609375 15.53125 22.484375 10.953125 
Q 26.375 6.390625 33.015625 6.390625 
Q 39.65625 6.390625 43.53125 10.953125 
Q 47.40625 15.53125 47.40625 23.390625 
Q 47.40625 31.296875 43.53125 35.828125 
Q 39.65625 40.375 33.015625 40.375 
M 52.59375 71.296875 
L 52.59375 62.3125 
Q 48.875 64.0625 45.09375 64.984375 
Q 41.3125 65.921875 37.59375 65.921875 
Q 27.828125 65.921875 22.671875 59.328125 
Q 17.53125 52.734375 16.796875 39.40625 
Q 19.671875 43.65625 24.015625 45.921875 
Q 28.375 48.1875 33.59375 48.1875 
Q 44.578125 48.1875 50.953125 41.515625 
Q 57.328125 34.859375 57.328125 23.390625 
Q 57.328125 12.15625 50.6875 5.359375 
Q 44.046875 -1.421875 33.015625 -1.421875 
Q 20.359375 -1.421875 13.671875 8.265625 
Q 6.984375 17.96875 6.984375 36.375 
Q 6.984375 53.65625 15.1875 63.9375 
Q 23.390625 74.21875 37.203125 74.21875 
Q 40.921875 74.21875 44.703125 73.484375 
Q 48.484375 72.75 52.59375 71.296875 
" id="DejaVuSans-36"/>
      </defs>
      <g transform="translate(370.706739 403.398438)scale(0.1 -0.1)">
       <use xlink:href="#DejaVuSans-36"/>
      </g>
     </g>
    </g>
    <g id="xtick_5">
     <g id="line2d_9">
      <path clip-path="url(#p4edcb29d99)" d="M 455.753683 388.8 
L 455.753683 64.8 
" style="fill:none;stroke:#b0b0b0;stroke-linecap:square;stroke-width:0.8;"/>
     </g>
     <g id="line2d_10">
      <g>
       <use style="stroke:#000000;stroke-width:0.8;" x="455.753683" xlink:href="#mc7c305e051" y="388.8"/>
      </g>
     </g>
     <g id="text_5">
      <!-- 8 -->
      <defs>
       <path d="M 31.78125 34.625 
Q 24.75 34.625 20.71875 30.859375 
Q 16.703125 27.09375 16.703125 20.515625 
Q 16.703125 13.921875 20.71875 10.15625 
Q 24.75 6.390625 31.78125 6.390625 
Q 38.8125 6.390625 42.859375 10.171875 
Q 46.921875 13.96875 46.921875 20.515625 
Q 46.921875 27.09375 42.890625 30.859375 
Q 38.875 34.625 31.78125 34.625 
M 21.921875 38.8125 
Q 15.578125 40.375 12.03125 44.71875 
Q 8.5 49.078125 8.5 55.328125 
Q 8.5 64.0625 14.71875 69.140625 
Q 20.953125 74.21875 31.78125 74.21875 
Q 42.671875 74.21875 48.875 69.140625 
Q 55.078125 64.0625 55.078125 55.328125 
Q 55.078125 49.078125 51.53125 44.71875 
Q 48 40.375 41.703125 38.8125 
Q 48.828125 37.15625 52.796875 32.3125 
Q 56.78125 27.484375 56.78125 20.515625 
Q 56.78125 9.90625 50.3125 4.234375 
Q 43.84375 -1.421875 31.78125 -1.421875 
Q 19.734375 -1.421875 13.25 4.234375 
Q 6.78125 9.90625 6.78125 20.515625 
Q 6.78125 27.484375 10.78125 32.3125 
Q 14.796875 37.15625 21.921875 38.8125 
M 18.3125 54.390625 
Q 18.3125 48.734375 21.84375 45.5625 
Q 25.390625 42.390625 31.78125 42.390625 
Q 38.140625 42.390625 41.71875 45.5625 
Q 45.3125 48.734375 45.3125 54.390625 
Q 45.3125 60.0625 41.71875 63.234375 
Q 38.140625 66.40625 31.78125 66.40625 
Q 25.390625 66.40625 21.84375 63.234375 
Q 18.3125 60.0625 18.3125 54.390625 
" id="DejaVuSans-38"/>
      </defs>
      <g transform="translate(452.572433 403.398438)scale(0.1 -0.1)">
       <use xlink:href="#DejaVuSans-38"/>
      </g>
     </g>
    </g>
    <g id="xtick_6">
     <g id="line2d_11">
      <path clip-path="url(#p4edcb29d99)" d="M 537.619376 388.8 
L 537.619376 64.8 
" style="fill:none;stroke:#b0b0b0;stroke-linecap:square;stroke-width:0.8;"/>
     </g>
     <g id="line2d_12">
      <g>
       <use style="stroke:#000000;stroke-width:0.8;" x="537.619376" xlink:href="#mc7c305e051" y="388.8"/>
      </g>
     </g>
     <g id="text_6">
      <!-- 10 -->
      <defs>
       <path d="M 12.40625 8.296875 
L 28.515625 8.296875 
L 28.515625 63.921875 
L 10.984375 60.40625 
L 10.984375 69.390625 
L 28.421875 72.90625 
L 38.28125 72.90625 
L 38.28125 8.296875 
L 54.390625 8.296875 
L 54.390625 0 
L 12.40625 0 
z
" id="DejaVuSans-31"/>
      </defs>
      <g transform="translate(531.256876 403.398438)scale(0.1 -0.1)">
       <use xlink:href="#DejaVuSans-31"/>
       <use x="63.623047" xlink:href="#DejaVuSans-30"/>
      </g>
     </g>
    </g>
    <g id="xtick_7">
     <g id="line2d_13">
      <path clip-path="url(#p4edcb29d99)" d="M 619.48507 388.8 
L 619.48507 64.8 
" style="fill:none;stroke:#b0b0b0;stroke-linecap:square;stroke-width:0.8;"/>
     </g>
     <g id="line2d_14">
      <g>
       <use style="stroke:#000000;stroke-width:0.8;" x="619.48507" xlink:href="#mc7c305e051" y="388.8"/>
      </g>
     </g>
     <g id="text_7">
      <!-- 12 -->
      <g transform="translate(613.12257 403.398438)scale(0.1 -0.1)">
       <use xlink:href="#DejaVuSans-31"/>
       <use x="63.623047" xlink:href="#DejaVuSans-32"/>
      </g>
     </g>
    </g>
    <g id="xtick_8">
     <g id="line2d_15">
      <path clip-path="url(#p4edcb29d99)" d="M 701.350763 388.8 
L 701.350763 64.8 
" style="fill:none;stroke:#b0b0b0;stroke-linecap:square;stroke-width:0.8;"/>
     </g>
     <g id="line2d_16">
      <g>
       <use style="stroke:#000000;stroke-width:0.8;" x="701.350763" xlink:href="#mc7c305e051" y="388.8"/>
      </g>
     </g>
     <g id="text_8">
      <!-- 14 -->
      <g transform="translate(694.988263 403.398438)scale(0.1 -0.1)">
       <use xlink:href="#DejaVuSans-31"/>
       <use x="63.623047" xlink:href="#DejaVuSans-34"/>
      </g>
     </g>
    </g>
    <g id="text_9">
     <!-- time (in seconds) -->
     <defs>
      <path d="M 18.3125 70.21875 
L 18.3125 54.6875 
L 36.8125 54.6875 
L 36.8125 47.703125 
L 18.3125 47.703125 
L 18.3125 18.015625 
Q 18.3125 11.328125 20.140625 9.421875 
Q 21.96875 7.515625 27.59375 7.515625 
L 36.8125 7.515625 
L 36.8125 0 
L 27.59375 0 
Q 17.1875 0 13.234375 3.875 
Q 9.28125 7.765625 9.28125 18.015625 
L 9.28125 47.703125 
L 2.6875 47.703125 
L 2.6875 54.6875 
L 9.28125 54.6875 
L 9.28125 70.21875 
z
" id="DejaVuSans-74"/>
      <path d="M 9.421875 54.6875 
L 18.40625 54.6875 
L 18.40625 0 
L 9.421875 0 
z
M 9.421875 75.984375 
L 18.40625 75.984375 
L 18.40625 64.59375 
L 9.421875 64.59375 
z
" id="DejaVuSans-69"/>
      <path d="M 52 44.1875 
Q 55.375 50.25 60.0625 53.125 
Q 64.75 56 71.09375 56 
Q 79.640625 56 84.28125 50.015625 
Q 88.921875 44.046875 88.921875 33.015625 
L 88.921875 0 
L 79.890625 0 
L 79.890625 32.71875 
Q 79.890625 40.578125 77.09375 44.375 
Q 74.3125 48.1875 68.609375 48.1875 
Q 61.625 48.1875 57.5625 43.546875 
Q 53.515625 38.921875 53.515625 30.90625 
L 53.515625 0 
L 44.484375 0 
L 44.484375 32.71875 
Q 44.484375 40.625 41.703125 44.40625 
Q 38.921875 48.1875 33.109375 48.1875 
Q 26.21875 48.1875 22.15625 43.53125 
Q 18.109375 38.875 18.109375 30.90625 
L 18.109375 0 
L 9.078125 0 
L 9.078125 54.6875 
L 18.109375 54.6875 
L 18.109375 46.1875 
Q 21.1875 51.21875 25.484375 53.609375 
Q 29.78125 56 35.6875 56 
Q 41.65625 56 45.828125 52.96875 
Q 50 49.953125 52 44.1875 
" id="DejaVuSans-6d"/>
      <path d="M 56.203125 29.59375 
L 56.203125 25.203125 
L 14.890625 25.203125 
Q 15.484375 15.921875 20.484375 11.0625 
Q 25.484375 6.203125 34.421875 6.203125 
Q 39.59375 6.203125 44.453125 7.46875 
Q 49.3125 8.734375 54.109375 11.28125 
L 54.109375 2.78125 
Q 49.265625 0.734375 44.1875 -0.34375 
Q 39.109375 -1.421875 33.890625 -1.421875 
Q 20.796875 -1.421875 13.15625 6.1875 
Q 5.515625 13.8125 5.515625 26.8125 
Q 5.515625 40.234375 12.765625 48.109375 
Q 20.015625 56 32.328125 56 
Q 43.359375 56 49.78125 48.890625 
Q 56.203125 41.796875 56.203125 29.59375 
M 47.21875 32.234375 
Q 47.125 39.59375 43.09375 43.984375 
Q 39.0625 48.390625 32.421875 48.390625 
Q 24.90625 48.390625 20.390625 44.140625 
Q 15.875 39.890625 15.1875 32.171875 
z
" id="DejaVuSans-65"/>
      <path id="DejaVuSans-20"/>
      <path d="M 31 75.875 
Q 24.46875 64.65625 21.28125 53.65625 
Q 18.109375 42.671875 18.109375 31.390625 
Q 18.109375 20.125 21.3125 9.0625 
Q 24.515625 -2 31 -13.1875 
L 23.1875 -13.1875 
Q 15.875 -1.703125 12.234375 9.375 
Q 8.59375 20.453125 8.59375 31.390625 
Q 8.59375 42.28125 12.203125 53.3125 
Q 15.828125 64.359375 23.1875 75.875 
z
" id="DejaVuSans-28"/>
      <path d="M 54.890625 33.015625 
L 54.890625 0 
L 45.90625 0 
L 45.90625 32.71875 
Q 45.90625 40.484375 42.875 44.328125 
Q 39.84375 48.1875 33.796875 48.1875 
Q 26.515625 48.1875 22.3125 43.546875 
Q 18.109375 38.921875 18.109375 30.90625 
L 18.109375 0 
L 9.078125 0 
L 9.078125 54.6875 
L 18.109375 54.6875 
L 18.109375 46.1875 
Q 21.34375 51.125 25.703125 53.5625 
Q 30.078125 56 35.796875 56 
Q 45.21875 56 50.046875 50.171875 
Q 54.890625 44.34375 54.890625 33.015625 
" id="DejaVuSans-6e"/>
      <path d="M 44.28125 53.078125 
L 44.28125 44.578125 
Q 40.484375 46.53125 36.375 47.5 
Q 32.28125 48.484375 27.875 48.484375 
Q 21.1875 48.484375 17.84375 46.4375 
Q 14.5 44.390625 14.5 40.28125 
Q 14.5 37.15625 16.890625 35.375 
Q 19.28125 33.59375 26.515625 31.984375 
L 29.59375 31.296875 
Q 39.15625 29.25 43.1875 25.515625 
Q 47.21875 21.78125 47.21875 15.09375 
Q 47.21875 7.46875 41.1875 3.015625 
Q 35.15625 -1.421875 24.609375 -1.421875 
Q 20.21875 -1.421875 15.453125 -0.5625 
Q 10.6875 0.296875 5.421875 2 
L 5.421875 11.28125 
Q 10.40625 8.6875 15.234375 7.390625 
Q 20.0625 6.109375 24.8125 6.109375 
Q 31.15625 6.109375 34.5625 8.28125 
Q 37.984375 10.453125 37.984375 14.40625 
Q 37.984375 18.0625 35.515625 20.015625 
Q 33.0625 21.96875 24.703125 23.78125 
L 21.578125 24.515625 
Q 13.234375 26.265625 9.515625 29.90625 
Q 5.8125 33.546875 5.8125 39.890625 
Q 5.8125 47.609375 11.28125 51.796875 
Q 16.75 56 26.8125 56 
Q 31.78125 56 36.171875 55.265625 
Q 40.578125 54.546875 44.28125 53.078125 
" id="DejaVuSans-73"/>
      <path d="M 48.78125 52.59375 
L 48.78125 44.1875 
Q 44.96875 46.296875 41.140625 47.34375 
Q 37.3125 48.390625 33.40625 48.390625 
Q 24.65625 48.390625 19.8125 42.84375 
Q 14.984375 37.3125 14.984375 27.296875 
Q 14.984375 17.28125 19.8125 11.734375 
Q 24.65625 6.203125 33.40625 6.203125 
Q 37.3125 6.203125 41.140625 7.25 
Q 44.96875 8.296875 48.78125 10.40625 
L 48.78125 2.09375 
Q 45.015625 0.34375 40.984375 -0.53125 
Q 36.96875 -1.421875 32.421875 -1.421875 
Q 20.0625 -1.421875 12.78125 6.34375 
Q 5.515625 14.109375 5.515625 27.296875 
Q 5.515625 40.671875 12.859375 48.328125 
Q 20.21875 56 33.015625 56 
Q 37.15625 56 41.109375 55.140625 
Q 45.0625 54.296875 48.78125 52.59375 
" id="DejaVuSans-63"/>
      <path d="M 30.609375 48.390625 
Q 23.390625 48.390625 19.1875 42.75 
Q 14.984375 37.109375 14.984375 27.296875 
Q 14.984375 17.484375 19.15625 11.84375 
Q 23.34375 6.203125 30.609375 6.203125 
Q 37.796875 6.203125 41.984375 11.859375 
Q 46.1875 17.53125 46.1875 27.296875 
Q 46.1875 37.015625 41.984375 42.703125 
Q 37.796875 48.390625 30.609375 48.390625 
M 30.609375 56 
Q 42.328125 56 49.015625 48.375 
Q 55.71875 40.765625 55.71875 27.296875 
Q 55.71875 13.875 49.015625 6.21875 
Q 42.328125 -1.421875 30.609375 -1.421875 
Q 18.84375 -1.421875 12.171875 6.21875 
Q 5.515625 13.875 5.515625 27.296875 
Q 5.515625 40.765625 12.171875 48.375 
Q 18.84375 56 30.609375 56 
" id="DejaVuSans-6f"/>
      <path d="M 45.40625 46.390625 
L 45.40625 75.984375 
L 54.390625 75.984375 
L 54.390625 0 
L 45.40625 0 
L 45.40625 8.203125 
Q 42.578125 3.328125 38.25 0.953125 
Q 33.9375 -1.421875 27.875 -1.421875 
Q 17.96875 -1.421875 11.734375 6.484375 
Q 5.515625 14.40625 5.515625 27.296875 
Q 5.515625 40.1875 11.734375 48.09375 
Q 17.96875 56 27.875 56 
Q 33.9375 56 38.25 53.625 
Q 42.578125 51.265625 45.40625 46.390625 
M 14.796875 27.296875 
Q 14.796875 17.390625 18.875 11.75 
Q 22.953125 6.109375 30.078125 6.109375 
Q 37.203125 6.109375 41.296875 11.75 
Q 45.40625 17.390625 45.40625 27.296875 
Q 45.40625 37.203125 41.296875 42.84375 
Q 37.203125 48.484375 30.078125 48.484375 
Q 22.953125 48.484375 18.875 42.84375 
Q 14.796875 37.203125 14.796875 27.296875 
" id="DejaVuSans-64"/>
      <path d="M 8.015625 75.875 
L 15.828125 75.875 
Q 23.140625 64.359375 26.78125 53.3125 
Q 30.421875 42.28125 30.421875 31.390625 
Q 30.421875 20.453125 26.78125 9.375 
Q 23.140625 -1.703125 15.828125 -13.1875 
L 8.015625 -13.1875 
Q 14.5 -2 17.703125 9.0625 
Q 20.90625 20.125 20.90625 31.390625 
Q 20.90625 42.671875 17.703125 53.65625 
Q 14.5 64.65625 8.015625 75.875 
" id="DejaVuSans-29"/>
     </defs>
     <g transform="translate(359.828906 417.076563)scale(0.1 -0.1)">
      <use xlink:href="#DejaVuSans-74"/>
      <use x="39.208984" xlink:href="#DejaVuSans-69"/>
      <use x="66.992188" xlink:href="#DejaVuSans-6d"/>
      <use x="164.404297" xlink:href="#DejaVuSans-65"/>
      <use x="225.927734" xlink:href="#DejaVuSans-20"/>
      <use x="257.714844" xlink:href="#DejaVuSans-28"/>
      <use x="296.728516" xlink:href="#DejaVuSans-69"/>
      <use x="324.511719" xlink:href="#DejaVuSans-6e"/>
      <use x="387.890625" xlink:href="#DejaVuSans-20"/>
      <use x="419.677734" xlink:href="#DejaVuSans-73"/>
      <use x="471.777344" xlink:href="#DejaVuSans-65"/>
      <use x="533.300781" xlink:href="#DejaVuSans-63"/>
      <use x="588.28125" xlink:href="#DejaVuSans-6f"/>
      <use x="649.462891" xlink:href="#DejaVuSans-6e"/>
      <use x="712.841797" xlink:href="#DejaVuSans-64"/>
      <use x="776.318359" xlink:href="#DejaVuSans-73"/>
      <use x="828.417969" xlink:href="#DejaVuSans-29"/>
     </g>
    </g>
   </g>
   <g id="matplotlib.axis_2">
    <g id="ytick_1">
     <g id="line2d_17">
      <path clip-path="url(#p4edcb29d99)" d="M 100.8 374.083726 
L 705.6 374.083726 
" style="fill:none;stroke:#b0b0b0;stroke-linecap:square;stroke-width:0.8;"/>
     </g>
     <g id="line2d_18">
      <defs>
       <path d="M 0 0 
L -3.5 0 
" id="m83ffecc67c" style="stroke:#000000;stroke-width:0.8;"/>
      </defs>
      <g>
       <use style="stroke:#000000;stroke-width:0.8;" x="100.8" xlink:href="#m83ffecc67c" y="374.083726"/>
      </g>
     </g>
     <g id="text_10">
      <!-- 0 -->
      <g transform="translate(87.4375 377.882945)scale(0.1 -0.1)">
       <use xlink:href="#DejaVuSans-30"/>
      </g>
     </g>
    </g>
    <g id="ytick_2">
     <g id="line2d_19">
      <path clip-path="url(#p4edcb29d99)" d="M 100.8 326.358849 
L 705.6 326.358849 
" style="fill:none;stroke:#b0b0b0;stroke-linecap:square;stroke-width:0.8;"/>
     </g>
     <g id="line2d_20">
      <g>
       <use style="stroke:#000000;stroke-width:0.8;" x="100.8" xlink:href="#m83ffecc67c" y="326.358849"/>
      </g>
     </g>
     <g id="text_11">
      <!-- 1000 -->
      <g transform="translate(68.35 330.158067)scale(0.1 -0.1)">
       <use xlink:href="#DejaVuSans-31"/>
       <use x="63.623047" xlink:href="#DejaVuSans-30"/>
       <use x="127.246094" xlink:href="#DejaVuSans-30"/>
       <use x="190.869141" xlink:href="#DejaVuSans-30"/>
      </g>
     </g>
    </g>
    <g id="ytick_3">
     <g id="line2d_21">
      <path clip-path="url(#p4edcb29d99)" d="M 100.8 278.633971 
L 705.6 278.633971 
" style="fill:none;stroke:#b0b0b0;stroke-linecap:square;stroke-width:0.8;"/>
     </g>
     <g id="line2d_22">
      <g>
       <use style="stroke:#000000;stroke-width:0.8;" x="100.8" xlink:href="#m83ffecc67c" y="278.633971"/>
      </g>
     </g>
     <g id="text_12">
      <!-- 2000 -->
      <g transform="translate(68.35 282.43319)scale(0.1 -0.1)">
       <use xlink:href="#DejaVuSans-32"/>
       <use x="63.623047" xlink:href="#DejaVuSans-30"/>
       <use x="127.246094" xlink:href="#DejaVuSans-30"/>
       <use x="190.869141" xlink:href="#DejaVuSans-30"/>
      </g>
     </g>
    </g>
    <g id="ytick_4">
     <g id="line2d_23">
      <path clip-path="url(#p4edcb29d99)" d="M 100.8 230.909093 
L 705.6 230.909093 
" style="fill:none;stroke:#b0b0b0;stroke-linecap:square;stroke-width:0.8;"/>
     </g>
     <g id="line2d_24">
      <g>
       <use style="stroke:#000000;stroke-width:0.8;" x="100.8" xlink:href="#m83ffecc67c" y="230.909093"/>
      </g>
     </g>
     <g id="text_13">
      <!-- 3000 -->
      <defs>
       <path d="M 40.578125 39.3125 
Q 47.65625 37.796875 51.625 33 
Q 55.609375 28.21875 55.609375 21.1875 
Q 55.609375 10.40625 48.1875 4.484375 
Q 40.765625 -1.421875 27.09375 -1.421875 
Q 22.515625 -1.421875 17.65625 -0.515625 
Q 12.796875 0.390625 7.625 2.203125 
L 7.625 11.71875 
Q 11.71875 9.328125 16.59375 8.109375 
Q 21.484375 6.890625 26.8125 6.890625 
Q 36.078125 6.890625 40.9375 10.546875 
Q 45.796875 14.203125 45.796875 21.1875 
Q 45.796875 27.640625 41.28125 31.265625 
Q 36.765625 34.90625 28.71875 34.90625 
L 20.21875 34.90625 
L 20.21875 43.015625 
L 29.109375 43.015625 
Q 36.375 43.015625 40.234375 45.921875 
Q 44.09375 48.828125 44.09375 54.296875 
Q 44.09375 59.90625 40.109375 62.90625 
Q 36.140625 65.921875 28.71875 65.921875 
Q 24.65625 65.921875 20.015625 65.03125 
Q 15.375 64.15625 9.8125 62.3125 
L 9.8125 71.09375 
Q 15.4375 72.65625 20.34375 73.4375 
Q 25.25 74.21875 29.59375 74.21875 
Q 40.828125 74.21875 47.359375 69.109375 
Q 53.90625 64.015625 53.90625 55.328125 
Q 53.90625 49.265625 50.4375 45.09375 
Q 46.96875 40.921875 40.578125 39.3125 
" id="DejaVuSans-33"/>
      </defs>
      <g transform="translate(68.35 234.708312)scale(0.1 -0.1)">
       <use xlink:href="#DejaVuSans-33"/>
       <use x="63.623047" xlink:href="#DejaVuSans-30"/>
       <use x="127.246094" xlink:href="#DejaVuSans-30"/>
       <use x="190.869141" xlink:href="#DejaVuSans-30"/>
      </g>
     </g>
    </g>
    <g id="ytick_5">
     <g id="line2d_25">
      <path clip-path="url(#p4edcb29d99)" d="M 100.8 183.184216 
L 705.6 183.184216 
" style="fill:none;stroke:#b0b0b0;stroke-linecap:square;stroke-width:0.8;"/>
     </g>
     <g id="line2d_26">
      <g>
       <use style="stroke:#000000;stroke-width:0.8;" x="100.8" xlink:href="#m83ffecc67c" y="183.184216"/>
      </g>
     </g>
     <g id="text_14">
      <!-- 4000 -->
      <g transform="translate(68.35 186.983434)scale(0.1 -0.1)">
       <use xlink:href="#DejaVuSans-34"/>
       <use x="63.623047" xlink:href="#DejaVuSans-30"/>
       <use x="127.246094" xlink:href="#DejaVuSans-30"/>
       <use x="190.869141" xlink:href="#DejaVuSans-30"/>
      </g>
     </g>
    </g>
    <g id="ytick_6">
     <g id="line2d_27">
      <path clip-path="url(#p4edcb29d99)" d="M 100.8 135.459338 
L 705.6 135.459338 
" style="fill:none;stroke:#b0b0b0;stroke-linecap:square;stroke-width:0.8;"/>
     </g>
     <g id="line2d_28">
      <g>
       <use style="stroke:#000000;stroke-width:0.8;" x="100.8" xlink:href="#m83ffecc67c" y="135.459338"/>
      </g>
     </g>
     <g id="text_15">
      <!-- 5000 -->
      <defs>
       <path d="M 10.796875 72.90625 
L 49.515625 72.90625 
L 49.515625 64.59375 
L 19.828125 64.59375 
L 19.828125 46.734375 
Q 21.96875 47.46875 24.109375 47.828125 
Q 26.265625 48.1875 28.421875 48.1875 
Q 40.625 48.1875 47.75 41.5 
Q 54.890625 34.8125 54.890625 23.390625 
Q 54.890625 11.625 47.5625 5.09375 
Q 40.234375 -1.421875 26.90625 -1.421875 
Q 22.3125 -1.421875 17.546875 -0.640625 
Q 12.796875 0.140625 7.71875 1.703125 
L 7.71875 11.625 
Q 12.109375 9.234375 16.796875 8.0625 
Q 21.484375 6.890625 26.703125 6.890625 
Q 35.15625 6.890625 40.078125 11.328125 
Q 45.015625 15.765625 45.015625 23.390625 
Q 45.015625 31 40.078125 35.4375 
Q 35.15625 39.890625 26.703125 39.890625 
Q 22.75 39.890625 18.8125 39.015625 
Q 14.890625 38.140625 10.796875 36.28125 
z
" id="DejaVuSans-35"/>
      </defs>
      <g transform="translate(68.35 139.258557)scale(0.1 -0.1)">
       <use xlink:href="#DejaVuSans-35"/>
       <use x="63.623047" xlink:href="#DejaVuSans-30"/>
       <use x="127.246094" xlink:href="#DejaVuSans-30"/>
       <use x="190.869141" xlink:href="#DejaVuSans-30"/>
      </g>
     </g>
    </g>
    <g id="ytick_7">
     <g id="line2d_29">
      <path clip-path="url(#p4edcb29d99)" d="M 100.8 87.73446 
L 705.6 87.73446 
" style="fill:none;stroke:#b0b0b0;stroke-linecap:square;stroke-width:0.8;"/>
     </g>
     <g id="line2d_30">
      <g>
       <use style="stroke:#000000;stroke-width:0.8;" x="100.8" xlink:href="#m83ffecc67c" y="87.73446"/>
      </g>
     </g>
     <g id="text_16">
      <!-- 6000 -->
      <g transform="translate(68.35 91.533679)scale(0.1 -0.1)">
       <use xlink:href="#DejaVuSans-36"/>
       <use x="63.623047" xlink:href="#DejaVuSans-30"/>
       <use x="127.246094" xlink:href="#DejaVuSans-30"/>
       <use x="190.869141" xlink:href="#DejaVuSans-30"/>
      </g>
     </g>
    </g>
    <g id="text_17">
     <!-- memory used (in MiB) -->
     <defs>
      <path d="M 41.109375 46.296875 
Q 39.59375 47.171875 37.8125 47.578125 
Q 36.03125 48 33.890625 48 
Q 26.265625 48 22.1875 43.046875 
Q 18.109375 38.09375 18.109375 28.8125 
L 18.109375 0 
L 9.078125 0 
L 9.078125 54.6875 
L 18.109375 54.6875 
L 18.109375 46.1875 
Q 20.953125 51.171875 25.484375 53.578125 
Q 30.03125 56 36.53125 56 
Q 37.453125 56 38.578125 55.875 
Q 39.703125 55.765625 41.0625 55.515625 
z
" id="DejaVuSans-72"/>
      <path d="M 32.171875 -5.078125 
Q 28.375 -14.84375 24.75 -17.8125 
Q 21.140625 -20.796875 15.09375 -20.796875 
L 7.90625 -20.796875 
L 7.90625 -13.28125 
L 13.1875 -13.28125 
Q 16.890625 -13.28125 18.9375 -11.515625 
Q 21 -9.765625 23.484375 -3.21875 
L 25.09375 0.875 
L 2.984375 54.6875 
L 12.5 54.6875 
L 29.59375 11.921875 
L 46.6875 54.6875 
L 56.203125 54.6875 
z
" id="DejaVuSans-79"/>
      <path d="M 8.5 21.578125 
L 8.5 54.6875 
L 17.484375 54.6875 
L 17.484375 21.921875 
Q 17.484375 14.15625 20.5 10.265625 
Q 23.53125 6.390625 29.59375 6.390625 
Q 36.859375 6.390625 41.078125 11.03125 
Q 45.3125 15.671875 45.3125 23.6875 
L 45.3125 54.6875 
L 54.296875 54.6875 
L 54.296875 0 
L 45.3125 0 
L 45.3125 8.40625 
Q 42.046875 3.421875 37.71875 1 
Q 33.40625 -1.421875 27.6875 -1.421875 
Q 18.265625 -1.421875 13.375 4.4375 
Q 8.5 10.296875 8.5 21.578125 
M 31.109375 56 
z
" id="DejaVuSans-75"/>
      <path d="M 9.8125 72.90625 
L 24.515625 72.90625 
L 43.109375 23.296875 
L 61.8125 72.90625 
L 76.515625 72.90625 
L 76.515625 0 
L 66.890625 0 
L 66.890625 64.015625 
L 48.09375 14.015625 
L 38.1875 14.015625 
L 19.390625 64.015625 
L 19.390625 0 
L 9.8125 0 
z
" id="DejaVuSans-4d"/>
      <path d="M 19.671875 34.8125 
L 19.671875 8.109375 
L 35.5 8.109375 
Q 43.453125 8.109375 47.28125 11.40625 
Q 51.125 14.703125 51.125 21.484375 
Q 51.125 28.328125 47.28125 31.5625 
Q 43.453125 34.8125 35.5 34.8125 
z
M 19.671875 64.796875 
L 19.671875 42.828125 
L 34.28125 42.828125 
Q 41.5 42.828125 45.03125 45.53125 
Q 48.578125 48.25 48.578125 53.8125 
Q 48.578125 59.328125 45.03125 62.0625 
Q 41.5 64.796875 34.28125 64.796875 
z
M 9.8125 72.90625 
L 35.015625 72.90625 
Q 46.296875 72.90625 52.390625 68.21875 
Q 58.5 63.53125 58.5 54.890625 
Q 58.5 48.1875 55.375 44.234375 
Q 52.25 40.28125 46.1875 39.3125 
Q 53.46875 37.75 57.5 32.78125 
Q 61.53125 27.828125 61.53125 20.40625 
Q 61.53125 10.640625 54.890625 5.3125 
Q 48.25 0 35.984375 0 
L 9.8125 0 
z
" id="DejaVuSans-42"/>
     </defs>
     <g transform="translate(62.270313 282.075781)rotate(-90)scale(0.1 -0.1)">
      <use xlink:href="#DejaVuSans-6d"/>
      <use x="97.412109" xlink:href="#DejaVuSans-65"/>
      <use x="158.935547" xlink:href="#DejaVuSans-6d"/>
      <use x="256.347656" xlink:href="#DejaVuSans-6f"/>
      <use x="317.529297" xlink:href="#DejaVuSans-72"/>
      <use x="358.642578" xlink:href="#DejaVuSans-79"/>
      <use x="417.822266" xlink:href="#DejaVuSans-20"/>
      <use x="449.609375" xlink:href="#DejaVuSans-75"/>
      <use x="512.988281" xlink:href="#DejaVuSans-73"/>
      <use x="565.087891" xlink:href="#DejaVuSans-65"/>
      <use x="626.611328" xlink:href="#DejaVuSans-64"/>
      <use x="690.087891" xlink:href="#DejaVuSans-20"/>
      <use x="721.875" xlink:href="#DejaVuSans-28"/>
      <use x="760.888672" xlink:href="#DejaVuSans-69"/>
      <use x="788.671875" xlink:href="#DejaVuSans-6e"/>
      <use x="852.050781" xlink:href="#DejaVuSans-20"/>
      <use x="883.837891" xlink:href="#DejaVuSans-4d"/>
      <use x="970.117188" xlink:href="#DejaVuSans-69"/>
      <use x="997.900391" xlink:href="#DejaVuSans-42"/>
      <use x="1066.503906" xlink:href="#DejaVuSans-29"/>
     </g>
    </g>
   </g>
   <g id="line2d_31">
    <path clip-path="url(#p4edcb29d99)" d="M 128.290909 374.072727 
L 132.408754 373.538619 
L 145.212545 372.788443 
L 149.359043 372.725059 
L 157.692977 372.136141 
L 161.999105 371.536411 
L 170.394434 370.883363 
L 178.806139 370.627588 
L 182.997656 370.319986 
L 187.307892 369.882259 
L 191.462568 367.209666 
L 195.768705 360.056341 
L 204.348229 344.762195 
L 212.800864 328.98614 
L 221.347646 313.494011 
L 225.580102 305.759226 
L 246.431289 268.823339 
L 255.047654 253.062571 
L 263.4962 238.65581 
L 267.745022 232.208664 
L 271.981577 224.582751 
L 276.152628 223.865572 
L 280.27866 223.865572 
L 284.474276 223.4944 
L 389.962317 223.49384 
L 394.096537 221.657924 
L 398.402675 219.193382 
L 406.969921 214.594083 
L 453.31409 188.549536 
L 461.648015 184.005419 
L 470.153857 179.175885 
L 478.577839 174.43248 
L 487.186015 169.728224 
L 491.406194 167.480307 
L 499.903848 162.598947 
L 525.43776 148.667571 
L 529.604722 146.284682 
L 533.906771 144.00004 
L 542.408524 139.256262 
L 567.983365 125.310717 
L 572.093021 122.916084 
L 588.793623 113.863085 
L 618.527238 96.997374 
L 627.143603 91.914675 
L 635.755878 86.933204 
L 648.318169 79.527273 
L 652.423727 85.432481 
L 656.733964 138.785165 
L 661.04419 193.764224 
L 669.660555 301.166265 
L 673.970781 356.527123 
L 678.109091 368.95498 
L 678.109091 368.95498 
" style="fill:none;stroke:#000000;stroke-linecap:square;stroke-width:1.5;"/>
    <defs>
     <path d="M -3 0 
L 3 0 
M 0 3 
L 0 -3 
" id="m10fec8c9c9" style="stroke:#000000;"/>
    </defs>
    <g clip-path="url(#p4edcb29d99)">
     <use style="stroke:#000000;" x="128.290909" xlink:href="#m10fec8c9c9" y="374.072727"/>
     <use style="stroke:#000000;" x="132.408754" xlink:href="#m10fec8c9c9" y="373.538619"/>
     <use style="stroke:#000000;" x="136.698515" xlink:href="#m10fec8c9c9" y="373.260286"/>
     <use style="stroke:#000000;" x="140.955535" xlink:href="#m10fec8c9c9" y="372.962378"/>
     <use style="stroke:#000000;" x="145.212545" xlink:href="#m10fec8c9c9" y="372.788443"/>
     <use style="stroke:#000000;" x="149.359043" xlink:href="#m10fec8c9c9" y="372.725059"/>
     <use style="stroke:#000000;" x="153.513728" xlink:href="#m10fec8c9c9" y="372.388002"/>
     <use style="stroke:#000000;" x="157.692977" xlink:href="#m10fec8c9c9" y="372.136141"/>
     <use style="stroke:#000000;" x="161.999105" xlink:href="#m10fec8c9c9" y="371.536411"/>
     <use style="stroke:#000000;" x="166.19473" xlink:href="#m10fec8c9c9" y="371.222284"/>
     <use style="stroke:#000000;" x="170.394434" xlink:href="#m10fec8c9c9" y="370.883363"/>
     <use style="stroke:#000000;" x="174.700572" xlink:href="#m10fec8c9c9" y="370.778033"/>
     <use style="stroke:#000000;" x="178.806139" xlink:href="#m10fec8c9c9" y="370.627588"/>
     <use style="stroke:#000000;" x="182.997656" xlink:href="#m10fec8c9c9" y="370.319986"/>
     <use style="stroke:#000000;" x="187.307892" xlink:href="#m10fec8c9c9" y="369.882259"/>
     <use style="stroke:#000000;" x="191.462568" xlink:href="#m10fec8c9c9" y="367.209666"/>
     <use style="stroke:#000000;" x="195.768705" xlink:href="#m10fec8c9c9" y="360.056341"/>
     <use style="stroke:#000000;" x="200.042101" xlink:href="#m10fec8c9c9" y="352.45895"/>
     <use style="stroke:#000000;" x="204.348229" xlink:href="#m10fec8c9c9" y="344.762195"/>
     <use style="stroke:#000000;" x="208.486539" xlink:href="#m10fec8c9c9" y="336.934383"/>
     <use style="stroke:#000000;" x="212.800864" xlink:href="#m10fec8c9c9" y="328.98614"/>
     <use style="stroke:#000000;" x="217.041508" xlink:href="#m10fec8c9c9" y="321.398631"/>
     <use style="stroke:#000000;" x="221.347646" xlink:href="#m10fec8c9c9" y="313.494011"/>
     <use style="stroke:#000000;" x="225.580102" xlink:href="#m10fec8c9c9" y="305.759226"/>
     <use style="stroke:#000000;" x="229.890328" xlink:href="#m10fec8c9c9" y="298.152141"/>
     <use style="stroke:#000000;" x="234.004084" xlink:href="#m10fec8c9c9" y="290.952955"/>
     <use style="stroke:#000000;" x="238.150581" xlink:href="#m10fec8c9c9" y="283.49296"/>
     <use style="stroke:#000000;" x="242.317544" xlink:href="#m10fec8c9c9" y="276.35082"/>
     <use style="stroke:#000000;" x="246.431289" xlink:href="#m10fec8c9c9" y="268.823339"/>
     <use style="stroke:#000000;" x="250.741516" xlink:href="#m10fec8c9c9" y="260.958615"/>
     <use style="stroke:#000000;" x="255.047654" xlink:href="#m10fec8c9c9" y="253.062571"/>
     <use style="stroke:#000000;" x="259.341514" xlink:href="#m10fec8c9c9" y="245.690942"/>
     <use style="stroke:#000000;" x="263.4962" xlink:href="#m10fec8c9c9" y="238.65581"/>
     <use style="stroke:#000000;" x="267.745022" xlink:href="#m10fec8c9c9" y="232.208664"/>
     <use style="stroke:#000000;" x="271.981577" xlink:href="#m10fec8c9c9" y="224.582751"/>
     <use style="stroke:#000000;" x="276.152628" xlink:href="#m10fec8c9c9" y="223.865572"/>
     <use style="stroke:#000000;" x="280.27866" xlink:href="#m10fec8c9c9" y="223.865572"/>
     <use style="stroke:#000000;" x="284.474276" xlink:href="#m10fec8c9c9" y="223.4944"/>
     <use style="stroke:#000000;" x="288.628961" xlink:href="#m10fec8c9c9" y="223.4944"/>
     <use style="stroke:#000000;" x="292.816398" xlink:href="#m10fec8c9c9" y="223.4944"/>
     <use style="stroke:#000000;" x="297.061131" xlink:href="#m10fec8c9c9" y="223.4944"/>
     <use style="stroke:#000000;" x="301.314052" xlink:href="#m10fec8c9c9" y="223.4944"/>
     <use style="stroke:#000000;" x="305.624279" xlink:href="#m10fec8c9c9" y="223.4944"/>
     <use style="stroke:#000000;" x="309.83627" xlink:href="#m10fec8c9c9" y="223.4944"/>
     <use style="stroke:#000000;" x="313.990955" xlink:href="#m10fec8c9c9" y="223.4944"/>
     <use style="stroke:#000000;" x="318.264341" xlink:href="#m10fec8c9c9" y="223.494027"/>
     <use style="stroke:#000000;" x="322.406749" xlink:href="#m10fec8c9c9" y="223.494027"/>
     <use style="stroke:#000000;" x="326.602365" xlink:href="#m10fec8c9c9" y="223.494027"/>
     <use style="stroke:#000000;" x="330.736585" xlink:href="#m10fec8c9c9" y="223.494027"/>
     <use style="stroke:#000000;" x="335.046812" xlink:href="#m10fec8c9c9" y="223.49384"/>
     <use style="stroke:#000000;" x="339.168745" xlink:href="#m10fec8c9c9" y="223.49384"/>
     <use style="stroke:#000000;" x="343.483071" xlink:href="#m10fec8c9c9" y="223.49384"/>
     <use style="stroke:#000000;" x="347.772833" xlink:href="#m10fec8c9c9" y="223.49384"/>
     <use style="stroke:#000000;" x="351.984824" xlink:href="#m10fec8c9c9" y="223.49384"/>
     <use style="stroke:#000000;" x="356.29505" xlink:href="#m10fec8c9c9" y="223.49384"/>
     <use style="stroke:#000000;" x="360.531605" xlink:href="#m10fec8c9c9" y="223.49384"/>
     <use style="stroke:#000000;" x="364.637163" xlink:href="#m10fec8c9c9" y="223.49384"/>
     <use style="stroke:#000000;" x="368.9474" xlink:href="#m10fec8c9c9" y="223.49384"/>
     <use style="stroke:#000000;" x="373.237161" xlink:href="#m10fec8c9c9" y="223.49384"/>
     <use style="stroke:#000000;" x="377.543289" xlink:href="#m10fec8c9c9" y="223.49384"/>
     <use style="stroke:#000000;" x="381.710261" xlink:href="#m10fec8c9c9" y="223.49384"/>
     <use style="stroke:#000000;" x="385.85266" xlink:href="#m10fec8c9c9" y="223.49384"/>
     <use style="stroke:#000000;" x="389.962317" xlink:href="#m10fec8c9c9" y="223.49384"/>
     <use style="stroke:#000000;" x="394.096537" xlink:href="#m10fec8c9c9" y="221.657924"/>
     <use style="stroke:#000000;" x="398.402675" xlink:href="#m10fec8c9c9" y="219.193382"/>
     <use style="stroke:#000000;" x="402.712901" xlink:href="#m10fec8c9c9" y="216.909858"/>
     <use style="stroke:#000000;" x="406.969921" xlink:href="#m10fec8c9c9" y="214.594083"/>
     <use style="stroke:#000000;" x="411.136883" xlink:href="#m10fec8c9c9" y="212.241023"/>
     <use style="stroke:#000000;" x="415.254728" xlink:href="#m10fec8c9c9" y="209.809664"/>
     <use style="stroke:#000000;" x="419.397127" xlink:href="#m10fec8c9c9" y="207.515701"/>
     <use style="stroke:#000000;" x="423.703264" xlink:href="#m10fec8c9c9" y="205.089189"/>
     <use style="stroke:#000000;" x="427.907067" xlink:href="#m10fec8c9c9" y="202.712825"/>
     <use style="stroke:#000000;" x="432.057654" xlink:href="#m10fec8c9c9" y="200.400965"/>
     <use style="stroke:#000000;" x="436.36789" xlink:href="#m10fec8c9c9" y="197.89485"/>
     <use style="stroke:#000000;" x="440.674018" xlink:href="#m10fec8c9c9" y="195.54384"/>
     <use style="stroke:#000000;" x="444.984255" xlink:href="#m10fec8c9c9" y="193.053198"/>
     <use style="stroke:#000000;" x="449.163494" xlink:href="#m10fec8c9c9" y="190.846668"/>
     <use style="stroke:#000000;" x="453.31409" xlink:href="#m10fec8c9c9" y="188.549536"/>
     <use style="stroke:#000000;" x="457.534259" xlink:href="#m10fec8c9c9" y="186.271978"/>
     <use style="stroke:#000000;" x="461.648015" xlink:href="#m10fec8c9c9" y="184.005419"/>
     <use style="stroke:#000000;" x="465.958242" xlink:href="#m10fec8c9c9" y="181.497067"/>
     <use style="stroke:#000000;" x="470.153857" xlink:href="#m10fec8c9c9" y="179.175885"/>
     <use style="stroke:#000000;" x="474.464084" xlink:href="#m10fec8c9c9" y="176.696802"/>
     <use style="stroke:#000000;" x="478.577839" xlink:href="#m10fec8c9c9" y="174.43248"/>
     <use style="stroke:#000000;" x="482.879878" xlink:href="#m10fec8c9c9" y="172.055371"/>
     <use style="stroke:#000000;" x="487.186015" xlink:href="#m10fec8c9c9" y="169.728224"/>
     <use style="stroke:#000000;" x="491.406194" xlink:href="#m10fec8c9c9" y="167.480307"/>
     <use style="stroke:#000000;" x="495.708233" xlink:href="#m10fec8c9c9" y="164.958905"/>
     <use style="stroke:#000000;" x="499.903848" xlink:href="#m10fec8c9c9" y="162.598947"/>
     <use style="stroke:#000000;" x="504.083098" xlink:href="#m10fec8c9c9" y="160.324559"/>
     <use style="stroke:#000000;" x="508.364671" xlink:href="#m10fec8c9c9" y="157.938315"/>
     <use style="stroke:#000000;" x="512.670809" xlink:href="#m10fec8c9c9" y="155.608371"/>
     <use style="stroke:#000000;" x="516.976947" xlink:href="#m10fec8c9c9" y="153.234059"/>
     <use style="stroke:#000000;" x="521.168463" xlink:href="#m10fec8c9c9" y="151.025478"/>
     <use style="stroke:#000000;" x="525.43776" xlink:href="#m10fec8c9c9" y="148.667571"/>
     <use style="stroke:#000000;" x="529.604722" xlink:href="#m10fec8c9c9" y="146.284682"/>
     <use style="stroke:#000000;" x="533.906771" xlink:href="#m10fec8c9c9" y="144.00004"/>
     <use style="stroke:#000000;" x="538.098287" xlink:href="#m10fec8c9c9" y="141.633371"/>
     <use style="stroke:#000000;" x="542.408524" xlink:href="#m10fec8c9c9" y="139.256262"/>
     <use style="stroke:#000000;" x="546.722839" xlink:href="#m10fec8c9c9" y="136.903948"/>
     <use style="stroke:#000000;" x="551.028977" xlink:href="#m10fec8c9c9" y="134.588173"/>
     <use style="stroke:#000000;" x="555.224592" xlink:href="#m10fec8c9c9" y="132.330749"/>
     <use style="stroke:#000000;" x="559.4898" xlink:href="#m10fec8c9c9" y="130.007703"/>
     <use style="stroke:#000000;" x="563.795928" xlink:href="#m10fec8c9c9" y="127.662845"/>
     <use style="stroke:#000000;" x="567.983365" xlink:href="#m10fec8c9c9" y="125.310717"/>
     <use style="stroke:#000000;" x="572.093021" xlink:href="#m10fec8c9c9" y="122.916084"/>
     <use style="stroke:#000000;" x="576.227242" xlink:href="#m10fec8c9c9" y="120.688488"/>
     <use style="stroke:#000000;" x="580.435134" xlink:href="#m10fec8c9c9" y="118.374764"/>
     <use style="stroke:#000000;" x="584.598007" xlink:href="#m10fec8c9c9" y="116.084156"/>
     <use style="stroke:#000000;" x="588.793623" xlink:href="#m10fec8c9c9" y="113.863085"/>
     <use style="stroke:#000000;" x="593.067008" xlink:href="#m10fec8c9c9" y="111.445522"/>
     <use style="stroke:#000000;" x="597.184853" xlink:href="#m10fec8c9c9" y="109.12956"/>
     <use style="stroke:#000000;" x="601.490991" xlink:href="#m10fec8c9c9" y="106.689999"/>
     <use style="stroke:#000000;" x="605.637488" xlink:href="#m10fec8c9c9" y="104.211661"/>
     <use style="stroke:#000000;" x="609.919062" xlink:href="#m10fec8c9c9" y="101.876497"/>
     <use style="stroke:#000000;" x="614.229289" xlink:href="#m10fec8c9c9" y="99.422395"/>
     <use style="stroke:#000000;" x="618.527238" xlink:href="#m10fec8c9c9" y="96.997374"/>
     <use style="stroke:#000000;" x="622.837475" xlink:href="#m10fec8c9c9" y="94.404944"/>
     <use style="stroke:#000000;" x="627.143603" xlink:href="#m10fec8c9c9" y="91.914675"/>
     <use style="stroke:#000000;" x="631.44974" xlink:href="#m10fec8c9c9" y="89.454234"/>
     <use style="stroke:#000000;" x="635.755878" xlink:href="#m10fec8c9c9" y="86.933204"/>
     <use style="stroke:#000000;" x="640.066105" xlink:href="#m10fec8c9c9" y="84.369856"/>
     <use style="stroke:#000000;" x="644.196226" xlink:href="#m10fec8c9c9" y="81.966834"/>
     <use style="stroke:#000000;" x="648.318169" xlink:href="#m10fec8c9c9" y="79.527273"/>
     <use style="stroke:#000000;" x="652.423727" xlink:href="#m10fec8c9c9" y="85.432481"/>
     <use style="stroke:#000000;" x="656.733964" xlink:href="#m10fec8c9c9" y="138.785165"/>
     <use style="stroke:#000000;" x="661.04419" xlink:href="#m10fec8c9c9" y="193.764224"/>
     <use style="stroke:#000000;" x="665.354417" xlink:href="#m10fec8c9c9" y="247.141704"/>
     <use style="stroke:#000000;" x="669.660555" xlink:href="#m10fec8c9c9" y="301.166265"/>
     <use style="stroke:#000000;" x="673.970781" xlink:href="#m10fec8c9c9" y="356.527123"/>
     <use style="stroke:#000000;" x="678.109091" xlink:href="#m10fec8c9c9" y="368.95498"/>
    </g>
   </g>
   <g id="patch_3">
    <path d="M 100.8 388.8 
L 100.8 64.8 
" style="fill:none;stroke:#000000;stroke-linecap:square;stroke-linejoin:miter;stroke-width:0.8;"/>
   </g>
   <g id="patch_4">
    <path d="M 705.6 388.8 
L 705.6 64.8 
" style="fill:none;stroke:#000000;stroke-linecap:square;stroke-linejoin:miter;stroke-width:0.8;"/>
   </g>
   <g id="patch_5">
    <path d="M 100.8 388.8 
L 705.6 388.8 
" style="fill:none;stroke:#000000;stroke-linecap:square;stroke-linejoin:miter;stroke-width:0.8;"/>
   </g>
   <g id="patch_6">
    <path d="M 100.8 64.8 
L 705.6 64.8 
" style="fill:none;stroke:#000000;stroke-linecap:square;stroke-linejoin:miter;stroke-width:0.8;"/>
   </g>
   <g id="text_18">
    <!-- numpy 20K -->
    <defs>
     <path d="M 18.109375 8.203125 
L 18.109375 -20.796875 
L 9.078125 -20.796875 
L 9.078125 54.6875 
L 18.109375 54.6875 
L 18.109375 46.390625 
Q 20.953125 51.265625 25.265625 53.625 
Q 29.59375 56 35.59375 56 
Q 45.5625 56 51.78125 48.09375 
Q 58.015625 40.1875 58.015625 27.296875 
Q 58.015625 14.40625 51.78125 6.484375 
Q 45.5625 -1.421875 35.59375 -1.421875 
Q 29.59375 -1.421875 25.265625 0.953125 
Q 20.953125 3.328125 18.109375 8.203125 
M 48.6875 27.296875 
Q 48.6875 37.203125 44.609375 42.84375 
Q 40.53125 48.484375 33.40625 48.484375 
Q 26.265625 48.484375 22.1875 42.84375 
Q 18.109375 37.203125 18.109375 27.296875 
Q 18.109375 17.390625 22.1875 11.75 
Q 26.265625 6.109375 33.40625 6.109375 
Q 40.53125 6.109375 44.609375 11.75 
Q 48.6875 17.390625 48.6875 27.296875 
" id="DejaVuSans-70"/>
     <path d="M 9.8125 72.90625 
L 19.671875 72.90625 
L 19.671875 42.09375 
L 52.390625 72.90625 
L 65.09375 72.90625 
L 28.90625 38.921875 
L 67.671875 0 
L 54.6875 0 
L 19.671875 35.109375 
L 19.671875 0 
L 9.8125 0 
z
" id="DejaVuSans-4b"/>
    </defs>
    <g transform="translate(368.91375 58.8)scale(0.12 -0.12)">
     <use xlink:href="#DejaVuSans-6e"/>
     <use x="63.378906" xlink:href="#DejaVuSans-75"/>
     <use x="126.757812" xlink:href="#DejaVuSans-6d"/>
     <use x="224.169922" xlink:href="#DejaVuSans-70"/>
     <use x="287.646484" xlink:href="#DejaVuSans-79"/>
     <use x="346.826172" xlink:href="#DejaVuSans-20"/>
     <use x="378.613281" xlink:href="#DejaVuSans-32"/>
     <use x="442.236328" xlink:href="#DejaVuSans-30"/>
     <use x="505.859375" xlink:href="#DejaVuSans-4b"/>
    </g>
   </g>
   <g id="legend_1">
    <g id="patch_7">
     <path d="M 712.6 235.639063 
L 931.785937 235.639063 
Q 933.785937 235.639063 933.785937 233.639063 
L 933.785937 219.960938 
Q 933.785937 217.960938 931.785937 217.960938 
L 712.6 217.960938 
Q 710.6 217.960938 710.6 219.960938 
L 710.6 233.639063 
Q 710.6 235.639063 712.6 235.639063 
z
" style="fill:#ffffff;opacity:0.5;stroke:#cccccc;stroke-linejoin:miter;"/>
    </g>
    <g id="line2d_32">
     <path d="M 714.6 226.059375 
L 734.6 226.059375 
" style="fill:none;stroke:#000000;stroke-linecap:square;stroke-width:1.5;"/>
    </g>
    <g id="line2d_33">
     <g>
      <use style="stroke:#000000;" x="724.6" xlink:href="#m10fec8c9c9" y="226.059375"/>
     </g>
    </g>
    <g id="text_19">
     <!-- 18 / 03 / 2018 - start at 15:40:03.111 -->
     <defs>
      <path d="M 25.390625 72.90625 
L 33.6875 72.90625 
L 8.296875 -9.28125 
L 0 -9.28125 
z
" id="DejaVuSans-2f"/>
      <path d="M 4.890625 31.390625 
L 31.203125 31.390625 
L 31.203125 23.390625 
L 4.890625 23.390625 
z
" id="DejaVuSans-2d"/>
      <path d="M 34.28125 27.484375 
Q 23.390625 27.484375 19.1875 25 
Q 14.984375 22.515625 14.984375 16.5 
Q 14.984375 11.71875 18.140625 8.90625 
Q 21.296875 6.109375 26.703125 6.109375 
Q 34.1875 6.109375 38.703125 11.40625 
Q 43.21875 16.703125 43.21875 25.484375 
L 43.21875 27.484375 
z
M 52.203125 31.203125 
L 52.203125 0 
L 43.21875 0 
L 43.21875 8.296875 
Q 40.140625 3.328125 35.546875 0.953125 
Q 30.953125 -1.421875 24.3125 -1.421875 
Q 15.921875 -1.421875 10.953125 3.296875 
Q 6 8.015625 6 15.921875 
Q 6 25.140625 12.171875 29.828125 
Q 18.359375 34.515625 30.609375 34.515625 
L 43.21875 34.515625 
L 43.21875 35.40625 
Q 43.21875 41.609375 39.140625 45 
Q 35.0625 48.390625 27.6875 48.390625 
Q 23 48.390625 18.546875 47.265625 
Q 14.109375 46.140625 10.015625 43.890625 
L 10.015625 52.203125 
Q 14.9375 54.109375 19.578125 55.046875 
Q 24.21875 56 28.609375 56 
Q 40.484375 56 46.34375 49.84375 
Q 52.203125 43.703125 52.203125 31.203125 
" id="DejaVuSans-61"/>
      <path d="M 11.71875 12.40625 
L 22.015625 12.40625 
L 22.015625 0 
L 11.71875 0 
z
M 11.71875 51.703125 
L 22.015625 51.703125 
L 22.015625 39.3125 
L 11.71875 39.3125 
z
" id="DejaVuSans-3a"/>
      <path d="M 10.6875 12.40625 
L 21 12.40625 
L 21 0 
L 10.6875 0 
z
" id="DejaVuSans-2e"/>
     </defs>
     <g transform="translate(742.6 229.559375)scale(0.1 -0.1)">
      <use xlink:href="#DejaVuSans-31"/>
      <use x="63.623047" xlink:href="#DejaVuSans-38"/>
      <use x="127.246094" xlink:href="#DejaVuSans-20"/>
      <use x="159.033203" xlink:href="#DejaVuSans-2f"/>
      <use x="192.724609" xlink:href="#DejaVuSans-20"/>
      <use x="224.511719" xlink:href="#DejaVuSans-30"/>
      <use x="288.134766" xlink:href="#DejaVuSans-33"/>
      <use x="351.757812" xlink:href="#DejaVuSans-20"/>
      <use x="383.544922" xlink:href="#DejaVuSans-2f"/>
      <use x="417.236328" xlink:href="#DejaVuSans-20"/>
      <use x="449.023438" xlink:href="#DejaVuSans-32"/>
      <use x="512.646484" xlink:href="#DejaVuSans-30"/>
      <use x="576.269531" xlink:href="#DejaVuSans-31"/>
      <use x="639.892578" xlink:href="#DejaVuSans-38"/>
      <use x="703.515625" xlink:href="#DejaVuSans-20"/>
      <use x="735.302734" xlink:href="#DejaVuSans-2d"/>
      <use x="771.386719" xlink:href="#DejaVuSans-20"/>
      <use x="803.173828" xlink:href="#DejaVuSans-73"/>
      <use x="855.273438" xlink:href="#DejaVuSans-74"/>
      <use x="894.482422" xlink:href="#DejaVuSans-61"/>
      <use x="955.761719" xlink:href="#DejaVuSans-72"/>
      <use x="996.875" xlink:href="#DejaVuSans-74"/>
      <use x="1036.083984" xlink:href="#DejaVuSans-20"/>
      <use x="1067.871094" xlink:href="#DejaVuSans-61"/>
      <use x="1129.150391" xlink:href="#DejaVuSans-74"/>
      <use x="1168.359375" xlink:href="#DejaVuSans-20"/>
      <use x="1200.146484" xlink:href="#DejaVuSans-31"/>
      <use x="1263.769531" xlink:href="#DejaVuSans-35"/>
      <use x="1327.392578" xlink:href="#DejaVuSans-3a"/>
      <use x="1361.083984" xlink:href="#DejaVuSans-34"/>
      <use x="1424.707031" xlink:href="#DejaVuSans-30"/>
      <use x="1488.330078" xlink:href="#DejaVuSans-3a"/>
      <use x="1522.021484" xlink:href="#DejaVuSans-30"/>
      <use x="1585.644531" xlink:href="#DejaVuSans-33"/>
      <use x="1649.267578" xlink:href="#DejaVuSans-2e"/>
      <use x="1681.054688" xlink:href="#DejaVuSans-31"/>
      <use x="1744.677734" xlink:href="#DejaVuSans-31"/>
      <use x="1808.300781" xlink:href="#DejaVuSans-31"/>
     </g>
    </g>
   </g>
  </g>
 </g>
 <defs>
  <clipPath id="p4edcb29d99">
   <rect height="324" width="604.8" x="100.8" y="64.8"/>
  </clipPath>
 </defs>
</svg>
