<?xml version="1.0" encoding="utf-8" standalone="no"?>
<!DOCTYPE svg PUBLIC "-//W3C//DTD SVG 1.1//EN"
  "http://www.w3.org/Graphics/SVG/1.1/DTD/svg11.dtd">
<!-- Created with matplotlib (http://matplotlib.org/) -->
<svg height="432pt" version="1.1" viewBox="0 0 1008 432" width="1008pt" xmlns="http://www.w3.org/2000/svg" xmlns:xlink="http://www.w3.org/1999/xlink">
 <defs>
  <style type="text/css">
*{stroke-linecap:butt;stroke-linejoin:round;}
  </style>
 </defs>
 <g id="figure_1">
  <g id="patch_1">
   <path d="M 0 432 
L 1008 432 
L 1008 0 
L 0 0 
z
" style="fill:#ffffff;"/>
  </g>
  <g id="axes_1">
   <g id="patch_2">
    <path d="M 100.8 388.8 
L 705.6 388.8 
L 705.6 64.8 
L 100.8 64.8 
z
" style="fill:#ffffff;"/>
   </g>
   <g id="matplotlib.axis_1">
    <g id="xtick_1">
     <g id="line2d_1">
      <path clip-path="url(#p05e5fa576f)" d="M 128.290909 388.8 
L 128.290909 64.8 
" style="fill:none;stroke:#b0b0b0;stroke-linecap:square;stroke-width:0.8;"/>
     </g>
     <g id="line2d_2">
      <defs>
       <path d="M 0 0 
L 0 3.5 
" id="m14eadd501c" style="stroke:#000000;stroke-width:0.8;"/>
      </defs>
      <g>
       <use style="stroke:#000000;stroke-width:0.8;" x="128.290909" xlink:href="#m14eadd501c" y="388.8"/>
      </g>
     </g>
     <g id="text_1">
      <!-- 0 -->
      <defs>
       <path d="M 31.78125 66.40625 
Q 24.171875 66.40625 20.328125 58.90625 
Q 16.5 51.421875 16.5 36.375 
Q 16.5 21.390625 20.328125 13.890625 
Q 24.171875 6.390625 31.78125 6.390625 
Q 39.453125 6.390625 43.28125 13.890625 
Q 47.125 21.390625 47.125 36.375 
Q 47.125 51.421875 43.28125 58.90625 
Q 39.453125 66.40625 31.78125 66.40625 
M 31.78125 74.21875 
Q 44.046875 74.21875 50.515625 64.515625 
Q 56.984375 54.828125 56.984375 36.375 
Q 56.984375 17.96875 50.515625 8.265625 
Q 44.046875 -1.421875 31.78125 -1.421875 
Q 19.53125 -1.421875 13.0625 8.265625 
Q 6.59375 17.96875 6.59375 36.375 
Q 6.59375 54.828125 13.0625 64.515625 
Q 19.53125 74.21875 31.78125 74.21875 
" id="DejaVuSans-30"/>
      </defs>
      <g transform="translate(125.109659 403.398438)scale(0.1 -0.1)">
       <use xlink:href="#DejaVuSans-30"/>
      </g>
     </g>
    </g>
    <g id="xtick_2">
     <g id="line2d_3">
      <path clip-path="url(#p05e5fa576f)" d="M 247.086781 388.8 
L 247.086781 64.8 
" style="fill:none;stroke:#b0b0b0;stroke-linecap:square;stroke-width:0.8;"/>
     </g>
     <g id="line2d_4">
      <g>
       <use style="stroke:#000000;stroke-width:0.8;" x="247.086781" xlink:href="#m14eadd501c" y="388.8"/>
      </g>
     </g>
     <g id="text_2">
      <!-- 5 -->
      <defs>
       <path d="M 10.796875 72.90625 
L 49.515625 72.90625 
L 49.515625 64.59375 
L 19.828125 64.59375 
L 19.828125 46.734375 
Q 21.96875 47.46875 24.109375 47.828125 
Q 26.265625 48.1875 28.421875 48.1875 
Q 40.625 48.1875 47.75 41.5 
Q 54.890625 34.8125 54.890625 23.390625 
Q 54.890625 11.625 47.5625 5.09375 
Q 40.234375 -1.421875 26.90625 -1.421875 
Q 22.3125 -1.421875 17.546875 -0.640625 
Q 12.796875 0.140625 7.71875 1.703125 
L 7.71875 11.625 
Q 12.109375 9.234375 16.796875 8.0625 
Q 21.484375 6.890625 26.703125 6.890625 
Q 35.15625 6.890625 40.078125 11.328125 
Q 45.015625 15.765625 45.015625 23.390625 
Q 45.015625 31 40.078125 35.4375 
Q 35.15625 39.890625 26.703125 39.890625 
Q 22.75 39.890625 18.8125 39.015625 
Q 14.890625 38.140625 10.796875 36.28125 
z
" id="DejaVuSans-35"/>
      </defs>
      <g transform="translate(243.905531 403.398438)scale(0.1 -0.1)">
       <use xlink:href="#DejaVuSans-35"/>
      </g>
     </g>
    </g>
    <g id="xtick_3">
     <g id="line2d_5">
      <path clip-path="url(#p05e5fa576f)" d="M 365.882653 388.8 
L 365.882653 64.8 
" style="fill:none;stroke:#b0b0b0;stroke-linecap:square;stroke-width:0.8;"/>
     </g>
     <g id="line2d_6">
      <g>
       <use style="stroke:#000000;stroke-width:0.8;" x="365.882653" xlink:href="#m14eadd501c" y="388.8"/>
      </g>
     </g>
     <g id="text_3">
      <!-- 10 -->
      <defs>
       <path d="M 12.40625 8.296875 
L 28.515625 8.296875 
L 28.515625 63.921875 
L 10.984375 60.40625 
L 10.984375 69.390625 
L 28.421875 72.90625 
L 38.28125 72.90625 
L 38.28125 8.296875 
L 54.390625 8.296875 
L 54.390625 0 
L 12.40625 0 
z
" id="DejaVuSans-31"/>
      </defs>
      <g transform="translate(359.520153 403.398438)scale(0.1 -0.1)">
       <use xlink:href="#DejaVuSans-31"/>
       <use x="63.623047" xlink:href="#DejaVuSans-30"/>
      </g>
     </g>
    </g>
    <g id="xtick_4">
     <g id="line2d_7">
      <path clip-path="url(#p05e5fa576f)" d="M 484.678525 388.8 
L 484.678525 64.8 
" style="fill:none;stroke:#b0b0b0;stroke-linecap:square;stroke-width:0.8;"/>
     </g>
     <g id="line2d_8">
      <g>
       <use style="stroke:#000000;stroke-width:0.8;" x="484.678525" xlink:href="#m14eadd501c" y="388.8"/>
      </g>
     </g>
     <g id="text_4">
      <!-- 15 -->
      <g transform="translate(478.316025 403.398438)scale(0.1 -0.1)">
       <use xlink:href="#DejaVuSans-31"/>
       <use x="63.623047" xlink:href="#DejaVuSans-35"/>
      </g>
     </g>
    </g>
    <g id="xtick_5">
     <g id="line2d_9">
      <path clip-path="url(#p05e5fa576f)" d="M 603.474397 388.8 
L 603.474397 64.8 
" style="fill:none;stroke:#b0b0b0;stroke-linecap:square;stroke-width:0.8;"/>
     </g>
     <g id="line2d_10">
      <g>
       <use style="stroke:#000000;stroke-width:0.8;" x="603.474397" xlink:href="#m14eadd501c" y="388.8"/>
      </g>
     </g>
     <g id="text_5">
      <!-- 20 -->
      <defs>
       <path d="M 19.1875 8.296875 
L 53.609375 8.296875 
L 53.609375 0 
L 7.328125 0 
L 7.328125 8.296875 
Q 12.9375 14.109375 22.625 23.890625 
Q 32.328125 33.6875 34.8125 36.53125 
Q 39.546875 41.84375 41.421875 45.53125 
Q 43.3125 49.21875 43.3125 52.78125 
Q 43.3125 58.59375 39.234375 62.25 
Q 35.15625 65.921875 28.609375 65.921875 
Q 23.96875 65.921875 18.8125 64.3125 
Q 13.671875 62.703125 7.8125 59.421875 
L 7.8125 69.390625 
Q 13.765625 71.78125 18.9375 73 
Q 24.125 74.21875 28.421875 74.21875 
Q 39.75 74.21875 46.484375 68.546875 
Q 53.21875 62.890625 53.21875 53.421875 
Q 53.21875 48.921875 51.53125 44.890625 
Q 49.859375 40.875 45.40625 35.40625 
Q 44.1875 33.984375 37.640625 27.21875 
Q 31.109375 20.453125 19.1875 8.296875 
" id="DejaVuSans-32"/>
      </defs>
      <g transform="translate(597.111897 403.398438)scale(0.1 -0.1)">
       <use xlink:href="#DejaVuSans-32"/>
       <use x="63.623047" xlink:href="#DejaVuSans-30"/>
      </g>
     </g>
    </g>
    <g id="text_6">
     <!-- time (in seconds) -->
     <defs>
      <path d="M 18.3125 70.21875 
L 18.3125 54.6875 
L 36.8125 54.6875 
L 36.8125 47.703125 
L 18.3125 47.703125 
L 18.3125 18.015625 
Q 18.3125 11.328125 20.140625 9.421875 
Q 21.96875 7.515625 27.59375 7.515625 
L 36.8125 7.515625 
L 36.8125 0 
L 27.59375 0 
Q 17.1875 0 13.234375 3.875 
Q 9.28125 7.765625 9.28125 18.015625 
L 9.28125 47.703125 
L 2.6875 47.703125 
L 2.6875 54.6875 
L 9.28125 54.6875 
L 9.28125 70.21875 
z
" id="DejaVuSans-74"/>
      <path d="M 9.421875 54.6875 
L 18.40625 54.6875 
L 18.40625 0 
L 9.421875 0 
z
M 9.421875 75.984375 
L 18.40625 75.984375 
L 18.40625 64.59375 
L 9.421875 64.59375 
z
" id="DejaVuSans-69"/>
      <path d="M 52 44.1875 
Q 55.375 50.25 60.0625 53.125 
Q 64.75 56 71.09375 56 
Q 79.640625 56 84.28125 50.015625 
Q 88.921875 44.046875 88.921875 33.015625 
L 88.921875 0 
L 79.890625 0 
L 79.890625 32.71875 
Q 79.890625 40.578125 77.09375 44.375 
Q 74.3125 48.1875 68.609375 48.1875 
Q 61.625 48.1875 57.5625 43.546875 
Q 53.515625 38.921875 53.515625 30.90625 
L 53.515625 0 
L 44.484375 0 
L 44.484375 32.71875 
Q 44.484375 40.625 41.703125 44.40625 
Q 38.921875 48.1875 33.109375 48.1875 
Q 26.21875 48.1875 22.15625 43.53125 
Q 18.109375 38.875 18.109375 30.90625 
L 18.109375 0 
L 9.078125 0 
L 9.078125 54.6875 
L 18.109375 54.6875 
L 18.109375 46.1875 
Q 21.1875 51.21875 25.484375 53.609375 
Q 29.78125 56 35.6875 56 
Q 41.65625 56 45.828125 52.96875 
Q 50 49.953125 52 44.1875 
" id="DejaVuSans-6d"/>
      <path d="M 56.203125 29.59375 
L 56.203125 25.203125 
L 14.890625 25.203125 
Q 15.484375 15.921875 20.484375 11.0625 
Q 25.484375 6.203125 34.421875 6.203125 
Q 39.59375 6.203125 44.453125 7.46875 
Q 49.3125 8.734375 54.109375 11.28125 
L 54.109375 2.78125 
Q 49.265625 0.734375 44.1875 -0.34375 
Q 39.109375 -1.421875 33.890625 -1.421875 
Q 20.796875 -1.421875 13.15625 6.1875 
Q 5.515625 13.8125 5.515625 26.8125 
Q 5.515625 40.234375 12.765625 48.109375 
Q 20.015625 56 32.328125 56 
Q 43.359375 56 49.78125 48.890625 
Q 56.203125 41.796875 56.203125 29.59375 
M 47.21875 32.234375 
Q 47.125 39.59375 43.09375 43.984375 
Q 39.0625 48.390625 32.421875 48.390625 
Q 24.90625 48.390625 20.390625 44.140625 
Q 15.875 39.890625 15.1875 32.171875 
z
" id="DejaVuSans-65"/>
      <path id="DejaVuSans-20"/>
      <path d="M 31 75.875 
Q 24.46875 64.65625 21.28125 53.65625 
Q 18.109375 42.671875 18.109375 31.390625 
Q 18.109375 20.125 21.3125 9.0625 
Q 24.515625 -2 31 -13.1875 
L 23.1875 -13.1875 
Q 15.875 -1.703125 12.234375 9.375 
Q 8.59375 20.453125 8.59375 31.390625 
Q 8.59375 42.28125 12.203125 53.3125 
Q 15.828125 64.359375 23.1875 75.875 
z
" id="DejaVuSans-28"/>
      <path d="M 54.890625 33.015625 
L 54.890625 0 
L 45.90625 0 
L 45.90625 32.71875 
Q 45.90625 40.484375 42.875 44.328125 
Q 39.84375 48.1875 33.796875 48.1875 
Q 26.515625 48.1875 22.3125 43.546875 
Q 18.109375 38.921875 18.109375 30.90625 
L 18.109375 0 
L 9.078125 0 
L 9.078125 54.6875 
L 18.109375 54.6875 
L 18.109375 46.1875 
Q 21.34375 51.125 25.703125 53.5625 
Q 30.078125 56 35.796875 56 
Q 45.21875 56 50.046875 50.171875 
Q 54.890625 44.34375 54.890625 33.015625 
" id="DejaVuSans-6e"/>
      <path d="M 44.28125 53.078125 
L 44.28125 44.578125 
Q 40.484375 46.53125 36.375 47.5 
Q 32.28125 48.484375 27.875 48.484375 
Q 21.1875 48.484375 17.84375 46.4375 
Q 14.5 44.390625 14.5 40.28125 
Q 14.5 37.15625 16.890625 35.375 
Q 19.28125 33.59375 26.515625 31.984375 
L 29.59375 31.296875 
Q 39.15625 29.25 43.1875 25.515625 
Q 47.21875 21.78125 47.21875 15.09375 
Q 47.21875 7.46875 41.1875 3.015625 
Q 35.15625 -1.421875 24.609375 -1.421875 
Q 20.21875 -1.421875 15.453125 -0.5625 
Q 10.6875 0.296875 5.421875 2 
L 5.421875 11.28125 
Q 10.40625 8.6875 15.234375 7.390625 
Q 20.0625 6.109375 24.8125 6.109375 
Q 31.15625 6.109375 34.5625 8.28125 
Q 37.984375 10.453125 37.984375 14.40625 
Q 37.984375 18.0625 35.515625 20.015625 
Q 33.0625 21.96875 24.703125 23.78125 
L 21.578125 24.515625 
Q 13.234375 26.265625 9.515625 29.90625 
Q 5.8125 33.546875 5.8125 39.890625 
Q 5.8125 47.609375 11.28125 51.796875 
Q 16.75 56 26.8125 56 
Q 31.78125 56 36.171875 55.265625 
Q 40.578125 54.546875 44.28125 53.078125 
" id="DejaVuSans-73"/>
      <path d="M 48.78125 52.59375 
L 48.78125 44.1875 
Q 44.96875 46.296875 41.140625 47.34375 
Q 37.3125 48.390625 33.40625 48.390625 
Q 24.65625 48.390625 19.8125 42.84375 
Q 14.984375 37.3125 14.984375 27.296875 
Q 14.984375 17.28125 19.8125 11.734375 
Q 24.65625 6.203125 33.40625 6.203125 
Q 37.3125 6.203125 41.140625 7.25 
Q 44.96875 8.296875 48.78125 10.40625 
L 48.78125 2.09375 
Q 45.015625 0.34375 40.984375 -0.53125 
Q 36.96875 -1.421875 32.421875 -1.421875 
Q 20.0625 -1.421875 12.78125 6.34375 
Q 5.515625 14.109375 5.515625 27.296875 
Q 5.515625 40.671875 12.859375 48.328125 
Q 20.21875 56 33.015625 56 
Q 37.15625 56 41.109375 55.140625 
Q 45.0625 54.296875 48.78125 52.59375 
" id="DejaVuSans-63"/>
      <path d="M 30.609375 48.390625 
Q 23.390625 48.390625 19.1875 42.75 
Q 14.984375 37.109375 14.984375 27.296875 
Q 14.984375 17.484375 19.15625 11.84375 
Q 23.34375 6.203125 30.609375 6.203125 
Q 37.796875 6.203125 41.984375 11.859375 
Q 46.1875 17.53125 46.1875 27.296875 
Q 46.1875 37.015625 41.984375 42.703125 
Q 37.796875 48.390625 30.609375 48.390625 
M 30.609375 56 
Q 42.328125 56 49.015625 48.375 
Q 55.71875 40.765625 55.71875 27.296875 
Q 55.71875 13.875 49.015625 6.21875 
Q 42.328125 -1.421875 30.609375 -1.421875 
Q 18.84375 -1.421875 12.171875 6.21875 
Q 5.515625 13.875 5.515625 27.296875 
Q 5.515625 40.765625 12.171875 48.375 
Q 18.84375 56 30.609375 56 
" id="DejaVuSans-6f"/>
      <path d="M 45.40625 46.390625 
L 45.40625 75.984375 
L 54.390625 75.984375 
L 54.390625 0 
L 45.40625 0 
L 45.40625 8.203125 
Q 42.578125 3.328125 38.25 0.953125 
Q 33.9375 -1.421875 27.875 -1.421875 
Q 17.96875 -1.421875 11.734375 6.484375 
Q 5.515625 14.40625 5.515625 27.296875 
Q 5.515625 40.1875 11.734375 48.09375 
Q 17.96875 56 27.875 56 
Q 33.9375 56 38.25 53.625 
Q 42.578125 51.265625 45.40625 46.390625 
M 14.796875 27.296875 
Q 14.796875 17.390625 18.875 11.75 
Q 22.953125 6.109375 30.078125 6.109375 
Q 37.203125 6.109375 41.296875 11.75 
Q 45.40625 17.390625 45.40625 27.296875 
Q 45.40625 37.203125 41.296875 42.84375 
Q 37.203125 48.484375 30.078125 48.484375 
Q 22.953125 48.484375 18.875 42.84375 
Q 14.796875 37.203125 14.796875 27.296875 
" id="DejaVuSans-64"/>
      <path d="M 8.015625 75.875 
L 15.828125 75.875 
Q 23.140625 64.359375 26.78125 53.3125 
Q 30.421875 42.28125 30.421875 31.390625 
Q 30.421875 20.453125 26.78125 9.375 
Q 23.140625 -1.703125 15.828125 -13.1875 
L 8.015625 -13.1875 
Q 14.5 -2 17.703125 9.0625 
Q 20.90625 20.125 20.90625 31.390625 
Q 20.90625 42.671875 17.703125 53.65625 
Q 14.5 64.65625 8.015625 75.875 
" id="DejaVuSans-29"/>
     </defs>
     <g transform="translate(359.828906 417.076563)scale(0.1 -0.1)">
      <use xlink:href="#DejaVuSans-74"/>
      <use x="39.208984" xlink:href="#DejaVuSans-69"/>
      <use x="66.992188" xlink:href="#DejaVuSans-6d"/>
      <use x="164.404297" xlink:href="#DejaVuSans-65"/>
      <use x="225.927734" xlink:href="#DejaVuSans-20"/>
      <use x="257.714844" xlink:href="#DejaVuSans-28"/>
      <use x="296.728516" xlink:href="#DejaVuSans-69"/>
      <use x="324.511719" xlink:href="#DejaVuSans-6e"/>
      <use x="387.890625" xlink:href="#DejaVuSans-20"/>
      <use x="419.677734" xlink:href="#DejaVuSans-73"/>
      <use x="471.777344" xlink:href="#DejaVuSans-65"/>
      <use x="533.300781" xlink:href="#DejaVuSans-63"/>
      <use x="588.28125" xlink:href="#DejaVuSans-6f"/>
      <use x="649.462891" xlink:href="#DejaVuSans-6e"/>
      <use x="712.841797" xlink:href="#DejaVuSans-64"/>
      <use x="776.318359" xlink:href="#DejaVuSans-73"/>
      <use x="828.417969" xlink:href="#DejaVuSans-29"/>
     </g>
    </g>
   </g>
   <g id="matplotlib.axis_2">
    <g id="ytick_1">
     <g id="line2d_11">
      <path clip-path="url(#p05e5fa576f)" d="M 100.8 374.481792 
L 705.6 374.481792 
" style="fill:none;stroke:#b0b0b0;stroke-linecap:square;stroke-width:0.8;"/>
     </g>
     <g id="line2d_12">
      <defs>
       <path d="M 0 0 
L -3.5 0 
" id="m126718ecdc" style="stroke:#000000;stroke-width:0.8;"/>
      </defs>
      <g>
       <use style="stroke:#000000;stroke-width:0.8;" x="100.8" xlink:href="#m126718ecdc" y="374.481792"/>
      </g>
     </g>
     <g id="text_7">
      <!-- 0 -->
      <g transform="translate(87.4375 378.28101)scale(0.1 -0.1)">
       <use xlink:href="#DejaVuSans-30"/>
      </g>
     </g>
    </g>
    <g id="ytick_2">
     <g id="line2d_13">
      <path clip-path="url(#p05e5fa576f)" d="M 100.8 334.814874 
L 705.6 334.814874 
" style="fill:none;stroke:#b0b0b0;stroke-linecap:square;stroke-width:0.8;"/>
     </g>
     <g id="line2d_14">
      <g>
       <use style="stroke:#000000;stroke-width:0.8;" x="100.8" xlink:href="#m126718ecdc" y="334.814874"/>
      </g>
     </g>
     <g id="text_8">
      <!-- 25 -->
      <g transform="translate(81.075 338.614093)scale(0.1 -0.1)">
       <use xlink:href="#DejaVuSans-32"/>
       <use x="63.623047" xlink:href="#DejaVuSans-35"/>
      </g>
     </g>
    </g>
    <g id="ytick_3">
     <g id="line2d_15">
      <path clip-path="url(#p05e5fa576f)" d="M 100.8 295.147957 
L 705.6 295.147957 
" style="fill:none;stroke:#b0b0b0;stroke-linecap:square;stroke-width:0.8;"/>
     </g>
     <g id="line2d_16">
      <g>
       <use style="stroke:#000000;stroke-width:0.8;" x="100.8" xlink:href="#m126718ecdc" y="295.147957"/>
      </g>
     </g>
     <g id="text_9">
      <!-- 50 -->
      <g transform="translate(81.075 298.947176)scale(0.1 -0.1)">
       <use xlink:href="#DejaVuSans-35"/>
       <use x="63.623047" xlink:href="#DejaVuSans-30"/>
      </g>
     </g>
    </g>
    <g id="ytick_4">
     <g id="line2d_17">
      <path clip-path="url(#p05e5fa576f)" d="M 100.8 255.48104 
L 705.6 255.48104 
" style="fill:none;stroke:#b0b0b0;stroke-linecap:square;stroke-width:0.8;"/>
     </g>
     <g id="line2d_18">
      <g>
       <use style="stroke:#000000;stroke-width:0.8;" x="100.8" xlink:href="#m126718ecdc" y="255.48104"/>
      </g>
     </g>
     <g id="text_10">
      <!-- 75 -->
      <defs>
       <path d="M 8.203125 72.90625 
L 55.078125 72.90625 
L 55.078125 68.703125 
L 28.609375 0 
L 18.3125 0 
L 43.21875 64.59375 
L 8.203125 64.59375 
z
" id="DejaVuSans-37"/>
      </defs>
      <g transform="translate(81.075 259.280259)scale(0.1 -0.1)">
       <use xlink:href="#DejaVuSans-37"/>
       <use x="63.623047" xlink:href="#DejaVuSans-35"/>
      </g>
     </g>
    </g>
    <g id="ytick_5">
     <g id="line2d_19">
      <path clip-path="url(#p05e5fa576f)" d="M 100.8 215.814123 
L 705.6 215.814123 
" style="fill:none;stroke:#b0b0b0;stroke-linecap:square;stroke-width:0.8;"/>
     </g>
     <g id="line2d_20">
      <g>
       <use style="stroke:#000000;stroke-width:0.8;" x="100.8" xlink:href="#m126718ecdc" y="215.814123"/>
      </g>
     </g>
     <g id="text_11">
      <!-- 100 -->
      <g transform="translate(74.7125 219.613341)scale(0.1 -0.1)">
       <use xlink:href="#DejaVuSans-31"/>
       <use x="63.623047" xlink:href="#DejaVuSans-30"/>
       <use x="127.246094" xlink:href="#DejaVuSans-30"/>
      </g>
     </g>
    </g>
    <g id="ytick_6">
     <g id="line2d_21">
      <path clip-path="url(#p05e5fa576f)" d="M 100.8 176.147206 
L 705.6 176.147206 
" style="fill:none;stroke:#b0b0b0;stroke-linecap:square;stroke-width:0.8;"/>
     </g>
     <g id="line2d_22">
      <g>
       <use style="stroke:#000000;stroke-width:0.8;" x="100.8" xlink:href="#m126718ecdc" y="176.147206"/>
      </g>
     </g>
     <g id="text_12">
      <!-- 125 -->
      <g transform="translate(74.7125 179.946424)scale(0.1 -0.1)">
       <use xlink:href="#DejaVuSans-31"/>
       <use x="63.623047" xlink:href="#DejaVuSans-32"/>
       <use x="127.246094" xlink:href="#DejaVuSans-35"/>
      </g>
     </g>
    </g>
    <g id="ytick_7">
     <g id="line2d_23">
      <path clip-path="url(#p05e5fa576f)" d="M 100.8 136.480288 
L 705.6 136.480288 
" style="fill:none;stroke:#b0b0b0;stroke-linecap:square;stroke-width:0.8;"/>
     </g>
     <g id="line2d_24">
      <g>
       <use style="stroke:#000000;stroke-width:0.8;" x="100.8" xlink:href="#m126718ecdc" y="136.480288"/>
      </g>
     </g>
     <g id="text_13">
      <!-- 150 -->
      <g transform="translate(74.7125 140.279507)scale(0.1 -0.1)">
       <use xlink:href="#DejaVuSans-31"/>
       <use x="63.623047" xlink:href="#DejaVuSans-35"/>
       <use x="127.246094" xlink:href="#DejaVuSans-30"/>
      </g>
     </g>
    </g>
    <g id="ytick_8">
     <g id="line2d_25">
      <path clip-path="url(#p05e5fa576f)" d="M 100.8 96.813371 
L 705.6 96.813371 
" style="fill:none;stroke:#b0b0b0;stroke-linecap:square;stroke-width:0.8;"/>
     </g>
     <g id="line2d_26">
      <g>
       <use style="stroke:#000000;stroke-width:0.8;" x="100.8" xlink:href="#m126718ecdc" y="96.813371"/>
      </g>
     </g>
     <g id="text_14">
      <!-- 175 -->
      <g transform="translate(74.7125 100.61259)scale(0.1 -0.1)">
       <use xlink:href="#DejaVuSans-31"/>
       <use x="63.623047" xlink:href="#DejaVuSans-37"/>
       <use x="127.246094" xlink:href="#DejaVuSans-35"/>
      </g>
     </g>
    </g>
    <g id="text_15">
     <!-- memory used (in MiB) -->
     <defs>
      <path d="M 41.109375 46.296875 
Q 39.59375 47.171875 37.8125 47.578125 
Q 36.03125 48 33.890625 48 
Q 26.265625 48 22.1875 43.046875 
Q 18.109375 38.09375 18.109375 28.8125 
L 18.109375 0 
L 9.078125 0 
L 9.078125 54.6875 
L 18.109375 54.6875 
L 18.109375 46.1875 
Q 20.953125 51.171875 25.484375 53.578125 
Q 30.03125 56 36.53125 56 
Q 37.453125 56 38.578125 55.875 
Q 39.703125 55.765625 41.0625 55.515625 
z
" id="DejaVuSans-72"/>
      <path d="M 32.171875 -5.078125 
Q 28.375 -14.84375 24.75 -17.8125 
Q 21.140625 -20.796875 15.09375 -20.796875 
L 7.90625 -20.796875 
L 7.90625 -13.28125 
L 13.1875 -13.28125 
Q 16.890625 -13.28125 18.9375 -11.515625 
Q 21 -9.765625 23.484375 -3.21875 
L 25.09375 0.875 
L 2.984375 54.6875 
L 12.5 54.6875 
L 29.59375 11.921875 
L 46.6875 54.6875 
L 56.203125 54.6875 
z
" id="DejaVuSans-79"/>
      <path d="M 8.5 21.578125 
L 8.5 54.6875 
L 17.484375 54.6875 
L 17.484375 21.921875 
Q 17.484375 14.15625 20.5 10.265625 
Q 23.53125 6.390625 29.59375 6.390625 
Q 36.859375 6.390625 41.078125 11.03125 
Q 45.3125 15.671875 45.3125 23.6875 
L 45.3125 54.6875 
L 54.296875 54.6875 
L 54.296875 0 
L 45.3125 0 
L 45.3125 8.40625 
Q 42.046875 3.421875 37.71875 1 
Q 33.40625 -1.421875 27.6875 -1.421875 
Q 18.265625 -1.421875 13.375 4.4375 
Q 8.5 10.296875 8.5 21.578125 
M 31.109375 56 
z
" id="DejaVuSans-75"/>
      <path d="M 9.8125 72.90625 
L 24.515625 72.90625 
L 43.109375 23.296875 
L 61.8125 72.90625 
L 76.515625 72.90625 
L 76.515625 0 
L 66.890625 0 
L 66.890625 64.015625 
L 48.09375 14.015625 
L 38.1875 14.015625 
L 19.390625 64.015625 
L 19.390625 0 
L 9.8125 0 
z
" id="DejaVuSans-4d"/>
      <path d="M 19.671875 34.8125 
L 19.671875 8.109375 
L 35.5 8.109375 
Q 43.453125 8.109375 47.28125 11.40625 
Q 51.125 14.703125 51.125 21.484375 
Q 51.125 28.328125 47.28125 31.5625 
Q 43.453125 34.8125 35.5 34.8125 
z
M 19.671875 64.796875 
L 19.671875 42.828125 
L 34.28125 42.828125 
Q 41.5 42.828125 45.03125 45.53125 
Q 48.578125 48.25 48.578125 53.8125 
Q 48.578125 59.328125 45.03125 62.0625 
Q 41.5 64.796875 34.28125 64.796875 
z
M 9.8125 72.90625 
L 35.015625 72.90625 
Q 46.296875 72.90625 52.390625 68.21875 
Q 58.5 63.53125 58.5 54.890625 
Q 58.5 48.1875 55.375 44.234375 
Q 52.25 40.28125 46.1875 39.3125 
Q 53.46875 37.75 57.5 32.78125 
Q 61.53125 27.828125 61.53125 20.40625 
Q 61.53125 10.640625 54.890625 5.3125 
Q 48.25 0 35.984375 0 
L 9.8125 0 
z
" id="DejaVuSans-42"/>
     </defs>
     <g transform="translate(68.632812 282.075781)rotate(-90)scale(0.1 -0.1)">
      <use xlink:href="#DejaVuSans-6d"/>
      <use x="97.412109" xlink:href="#DejaVuSans-65"/>
      <use x="158.935547" xlink:href="#DejaVuSans-6d"/>
      <use x="256.347656" xlink:href="#DejaVuSans-6f"/>
      <use x="317.529297" xlink:href="#DejaVuSans-72"/>
      <use x="358.642578" xlink:href="#DejaVuSans-79"/>
      <use x="417.822266" xlink:href="#DejaVuSans-20"/>
      <use x="449.609375" xlink:href="#DejaVuSans-75"/>
      <use x="512.988281" xlink:href="#DejaVuSans-73"/>
      <use x="565.087891" xlink:href="#DejaVuSans-65"/>
      <use x="626.611328" xlink:href="#DejaVuSans-64"/>
      <use x="690.087891" xlink:href="#DejaVuSans-20"/>
      <use x="721.875" xlink:href="#DejaVuSans-28"/>
      <use x="760.888672" xlink:href="#DejaVuSans-69"/>
      <use x="788.671875" xlink:href="#DejaVuSans-6e"/>
      <use x="852.050781" xlink:href="#DejaVuSans-20"/>
      <use x="883.837891" xlink:href="#DejaVuSans-4d"/>
      <use x="970.117188" xlink:href="#DejaVuSans-69"/>
      <use x="997.900391" xlink:href="#DejaVuSans-42"/>
      <use x="1066.503906" xlink:href="#DejaVuSans-29"/>
     </g>
    </g>
   </g>
   <g id="line2d_27">
    <path clip-path="url(#p05e5fa576f)" d="M 128.290909 374.072727 
L 130.681082 355.553234 
L 133.121149 346.293489 
L 135.50657 336.308581 
L 138.003663 331.653916 
L 140.469861 328.703691 
L 142.890923 317.751902 
L 145.307232 309.155337 
L 147.794814 289.693756 
L 152.674949 268.515341 
L 155.093637 265.137456 
L 157.502815 259.608878 
L 159.980898 249.376054 
L 162.394828 234.854243 
L 164.894295 231.203647 
L 167.369998 227.862949 
L 169.781555 227.416696 
L 172.162228 226.852682 
L 177.070873 225.867208 
L 179.53945 224.807357 
L 182.04129 221.497648 
L 184.421957 213.52088 
L 186.904793 211.748264 
L 189.378122 210.322733 
L 191.780174 206.678337 
L 194.186978 203.63514 
L 199.059987 186.720917 
L 201.559453 184.613614 
L 204.061293 181.824533 
L 206.560759 181.148956 
L 208.998447 181.018798 
L 213.918976 180.405202 
L 218.870388 179.184203 
L 221.260561 177.597526 
L 223.750522 175.769131 
L 226.219099 174.734072 
L 231.218032 173.606044 
L 233.717493 172.744528 
L 236.10054 168.040279 
L 238.521602 164.414476 
L 240.971169 163.745096 
L 243.442125 163.559157 
L 245.889318 163.52197 
L 248.338891 163.181082 
L 255.609198 161.656386 
L 258.099159 160.949818 
L 260.596246 160.392001 
L 263.03394 158.867305 
L 265.435992 158.12355 
L 267.861807 157.993393 
L 270.25198 157.987196 
L 272.632647 157.733078 
L 275.134487 157.150471 
L 282.419052 157.014116 
L 287.313439 156.431508 
L 289.770137 156.00385 
L 294.678787 155.886088 
L 302.091645 155.830306 
L 304.550722 155.48322 
L 306.940895 155.297282 
L 311.828156 154.627903 
L 314.213576 154.125869 
L 316.608502 153.45649 
L 328.773201 150.729389 
L 331.218021 147.989892 
L 333.631951 147.673797 
L 336.131418 146.849468 
L 338.607121 146.291653 
L 341.042435 144.835133 
L 343.425482 143.595542 
L 345.924949 141.922094 
L 348.424415 140.050311 
L 353.328307 139.32515 
L 355.768374 138.618583 
L 360.584356 138.618583 
L 363.06957 138.14134 
L 365.52389 137.986392 
L 375.39583 137.881026 
L 380.230818 137.676493 
L 382.649506 137.484356 
L 385.075316 137.168262 
L 392.416901 136.783988 
L 399.844016 136.195182 
L 402.312599 135.59398 
L 407.225996 135.556793 
L 409.704078 134.844028 
L 412.096625 134.794444 
L 414.484419 134.558921 
L 416.876971 128.460133 
L 419.262391 133.325529 
L 473.105434 133.232559 
L 478.101988 133.114798 
L 589.066834 133.102403 
L 591.568679 130.604626 
L 594.06814 130.604626 
L 596.558101 130.406292 
L 606.451426 130.400094 
L 608.950887 123.111298 
L 613.942693 123.111298 
L 616.36375 79.527273 
L 673.110164 79.527273 
L 675.607251 79.936337 
L 678.109091 80.054099 
L 678.109091 80.054099 
" style="fill:none;stroke:#000000;stroke-linecap:square;stroke-width:1.5;"/>
    <defs>
     <path d="M -3 0 
L 3 0 
M 0 3 
L 0 -3 
" id="ma7ef48b8b1" style="stroke:#000000;"/>
    </defs>
    <g clip-path="url(#p05e5fa576f)">
     <use style="stroke:#000000;" x="128.290909" xlink:href="#ma7ef48b8b1" y="374.072727"/>
     <use style="stroke:#000000;" x="130.681082" xlink:href="#ma7ef48b8b1" y="355.553234"/>
     <use style="stroke:#000000;" x="133.121149" xlink:href="#ma7ef48b8b1" y="346.293489"/>
     <use style="stroke:#000000;" x="135.50657" xlink:href="#ma7ef48b8b1" y="336.308581"/>
     <use style="stroke:#000000;" x="138.003663" xlink:href="#ma7ef48b8b1" y="331.653916"/>
     <use style="stroke:#000000;" x="140.469861" xlink:href="#ma7ef48b8b1" y="328.703691"/>
     <use style="stroke:#000000;" x="142.890923" xlink:href="#ma7ef48b8b1" y="317.751902"/>
     <use style="stroke:#000000;" x="145.307232" xlink:href="#ma7ef48b8b1" y="309.155337"/>
     <use style="stroke:#000000;" x="147.794814" xlink:href="#ma7ef48b8b1" y="289.693756"/>
     <use style="stroke:#000000;" x="150.18974" xlink:href="#ma7ef48b8b1" y="279.138637"/>
     <use style="stroke:#000000;" x="152.674949" xlink:href="#ma7ef48b8b1" y="268.515341"/>
     <use style="stroke:#000000;" x="155.093637" xlink:href="#ma7ef48b8b1" y="265.137456"/>
     <use style="stroke:#000000;" x="157.502815" xlink:href="#ma7ef48b8b1" y="259.608878"/>
     <use style="stroke:#000000;" x="159.980898" xlink:href="#ma7ef48b8b1" y="249.376054"/>
     <use style="stroke:#000000;" x="162.394828" xlink:href="#ma7ef48b8b1" y="234.854243"/>
     <use style="stroke:#000000;" x="164.894295" xlink:href="#ma7ef48b8b1" y="231.203647"/>
     <use style="stroke:#000000;" x="167.369998" xlink:href="#ma7ef48b8b1" y="227.862949"/>
     <use style="stroke:#000000;" x="169.781555" xlink:href="#ma7ef48b8b1" y="227.416696"/>
     <use style="stroke:#000000;" x="172.162228" xlink:href="#ma7ef48b8b1" y="226.852682"/>
     <use style="stroke:#000000;" x="174.6213" xlink:href="#ma7ef48b8b1" y="226.406429"/>
     <use style="stroke:#000000;" x="177.070873" xlink:href="#ma7ef48b8b1" y="225.867208"/>
     <use style="stroke:#000000;" x="179.53945" xlink:href="#ma7ef48b8b1" y="224.807357"/>
     <use style="stroke:#000000;" x="182.04129" xlink:href="#ma7ef48b8b1" y="221.497648"/>
     <use style="stroke:#000000;" x="184.421957" xlink:href="#ma7ef48b8b1" y="213.52088"/>
     <use style="stroke:#000000;" x="186.904793" xlink:href="#ma7ef48b8b1" y="211.748264"/>
     <use style="stroke:#000000;" x="189.378122" xlink:href="#ma7ef48b8b1" y="210.322733"/>
     <use style="stroke:#000000;" x="191.780174" xlink:href="#ma7ef48b8b1" y="206.678337"/>
     <use style="stroke:#000000;" x="194.186978" xlink:href="#ma7ef48b8b1" y="203.63514"/>
     <use style="stroke:#000000;" x="196.567652" xlink:href="#ma7ef48b8b1" y="195.199721"/>
     <use style="stroke:#000000;" x="199.059987" xlink:href="#ma7ef48b8b1" y="186.720917"/>
     <use style="stroke:#000000;" x="201.559453" xlink:href="#ma7ef48b8b1" y="184.613614"/>
     <use style="stroke:#000000;" x="204.061293" xlink:href="#ma7ef48b8b1" y="181.824533"/>
     <use style="stroke:#000000;" x="206.560759" xlink:href="#ma7ef48b8b1" y="181.148956"/>
     <use style="stroke:#000000;" x="208.998447" xlink:href="#ma7ef48b8b1" y="181.018798"/>
     <use style="stroke:#000000;" x="211.46703" xlink:href="#ma7ef48b8b1" y="180.752287"/>
     <use style="stroke:#000000;" x="213.918976" xlink:href="#ma7ef48b8b1" y="180.405202"/>
     <use style="stroke:#000000;" x="216.392306" xlink:href="#ma7ef48b8b1" y="179.760614"/>
     <use style="stroke:#000000;" x="218.870388" xlink:href="#ma7ef48b8b1" y="179.184203"/>
     <use style="stroke:#000000;" x="221.260561" xlink:href="#ma7ef48b8b1" y="177.597526"/>
     <use style="stroke:#000000;" x="223.750522" xlink:href="#ma7ef48b8b1" y="175.769131"/>
     <use style="stroke:#000000;" x="226.219099" xlink:href="#ma7ef48b8b1" y="174.734072"/>
     <use style="stroke:#000000;" x="228.718566" xlink:href="#ma7ef48b8b1" y="174.151465"/>
     <use style="stroke:#000000;" x="231.218032" xlink:href="#ma7ef48b8b1" y="173.606044"/>
     <use style="stroke:#000000;" x="233.717493" xlink:href="#ma7ef48b8b1" y="172.744528"/>
     <use style="stroke:#000000;" x="236.10054" xlink:href="#ma7ef48b8b1" y="168.040279"/>
     <use style="stroke:#000000;" x="238.521602" xlink:href="#ma7ef48b8b1" y="164.414476"/>
     <use style="stroke:#000000;" x="240.971169" xlink:href="#ma7ef48b8b1" y="163.745096"/>
     <use style="stroke:#000000;" x="243.442125" xlink:href="#ma7ef48b8b1" y="163.559157"/>
     <use style="stroke:#000000;" x="245.889318" xlink:href="#ma7ef48b8b1" y="163.52197"/>
     <use style="stroke:#000000;" x="248.338891" xlink:href="#ma7ef48b8b1" y="163.181082"/>
     <use style="stroke:#000000;" x="250.8146" xlink:href="#ma7ef48b8b1" y="162.679048"/>
     <use style="stroke:#000000;" x="253.207146" xlink:href="#ma7ef48b8b1" y="162.251389"/>
     <use style="stroke:#000000;" x="255.609198" xlink:href="#ma7ef48b8b1" y="161.656386"/>
     <use style="stroke:#000000;" x="258.099159" xlink:href="#ma7ef48b8b1" y="160.949818"/>
     <use style="stroke:#000000;" x="260.596246" xlink:href="#ma7ef48b8b1" y="160.392001"/>
     <use style="stroke:#000000;" x="263.03394" xlink:href="#ma7ef48b8b1" y="158.867305"/>
     <use style="stroke:#000000;" x="265.435992" xlink:href="#ma7ef48b8b1" y="158.12355"/>
     <use style="stroke:#000000;" x="267.861807" xlink:href="#ma7ef48b8b1" y="157.993393"/>
     <use style="stroke:#000000;" x="270.25198" xlink:href="#ma7ef48b8b1" y="157.987196"/>
     <use style="stroke:#000000;" x="272.632647" xlink:href="#ma7ef48b8b1" y="157.733078"/>
     <use style="stroke:#000000;" x="275.134487" xlink:href="#ma7ef48b8b1" y="157.150471"/>
     <use style="stroke:#000000;" x="277.593565" xlink:href="#ma7ef48b8b1" y="157.12568"/>
     <use style="stroke:#000000;" x="280.038379" xlink:href="#ma7ef48b8b1" y="157.12568"/>
     <use style="stroke:#000000;" x="282.419052" xlink:href="#ma7ef48b8b1" y="157.014116"/>
     <use style="stroke:#000000;" x="284.899508" xlink:href="#ma7ef48b8b1" y="156.741405"/>
     <use style="stroke:#000000;" x="287.313439" xlink:href="#ma7ef48b8b1" y="156.431508"/>
     <use style="stroke:#000000;" x="289.770137" xlink:href="#ma7ef48b8b1" y="156.00385"/>
     <use style="stroke:#000000;" x="292.229215" xlink:href="#ma7ef48b8b1" y="155.991453"/>
     <use style="stroke:#000000;" x="294.678787" xlink:href="#ma7ef48b8b1" y="155.886088"/>
     <use style="stroke:#000000;" x="297.152117" xlink:href="#ma7ef48b8b1" y="155.855099"/>
     <use style="stroke:#000000;" x="299.618315" xlink:href="#ma7ef48b8b1" y="155.836505"/>
     <use style="stroke:#000000;" x="302.091645" xlink:href="#ma7ef48b8b1" y="155.830306"/>
     <use style="stroke:#000000;" x="304.550722" xlink:href="#ma7ef48b8b1" y="155.48322"/>
     <use style="stroke:#000000;" x="306.940895" xlink:href="#ma7ef48b8b1" y="155.297282"/>
     <use style="stroke:#000000;" x="309.440362" xlink:href="#ma7ef48b8b1" y="154.987384"/>
     <use style="stroke:#000000;" x="311.828156" xlink:href="#ma7ef48b8b1" y="154.627903"/>
     <use style="stroke:#000000;" x="314.213576" xlink:href="#ma7ef48b8b1" y="154.125869"/>
     <use style="stroke:#000000;" x="316.608502" xlink:href="#ma7ef48b8b1" y="153.45649"/>
     <use style="stroke:#000000;" x="318.991549" xlink:href="#ma7ef48b8b1" y="152.91107"/>
     <use style="stroke:#000000;" x="321.491015" xlink:href="#ma7ef48b8b1" y="152.278877"/>
     <use style="stroke:#000000;" x="323.890688" xlink:href="#ma7ef48b8b1" y="151.745854"/>
     <use style="stroke:#000000;" x="326.273735" xlink:href="#ma7ef48b8b1" y="151.287204"/>
     <use style="stroke:#000000;" x="328.773201" xlink:href="#ma7ef48b8b1" y="150.729389"/>
     <use style="stroke:#000000;" x="331.218021" xlink:href="#ma7ef48b8b1" y="147.989892"/>
     <use style="stroke:#000000;" x="333.631951" xlink:href="#ma7ef48b8b1" y="147.673797"/>
     <use style="stroke:#000000;" x="336.131418" xlink:href="#ma7ef48b8b1" y="146.849468"/>
     <use style="stroke:#000000;" x="338.607121" xlink:href="#ma7ef48b8b1" y="146.291653"/>
     <use style="stroke:#000000;" x="341.042435" xlink:href="#ma7ef48b8b1" y="144.835133"/>
     <use style="stroke:#000000;" x="343.425482" xlink:href="#ma7ef48b8b1" y="143.595542"/>
     <use style="stroke:#000000;" x="345.924949" xlink:href="#ma7ef48b8b1" y="141.922094"/>
     <use style="stroke:#000000;" x="348.424415" xlink:href="#ma7ef48b8b1" y="140.050311"/>
     <use style="stroke:#000000;" x="350.923876" xlink:href="#ma7ef48b8b1" y="139.709423"/>
     <use style="stroke:#000000;" x="353.328307" xlink:href="#ma7ef48b8b1" y="139.32515"/>
     <use style="stroke:#000000;" x="355.768374" xlink:href="#ma7ef48b8b1" y="138.618583"/>
     <use style="stroke:#000000;" x="358.201315" xlink:href="#ma7ef48b8b1" y="138.618583"/>
     <use style="stroke:#000000;" x="360.584356" xlink:href="#ma7ef48b8b1" y="138.618583"/>
     <use style="stroke:#000000;" x="363.06957" xlink:href="#ma7ef48b8b1" y="138.14134"/>
     <use style="stroke:#000000;" x="365.52389" xlink:href="#ma7ef48b8b1" y="137.986392"/>
     <use style="stroke:#000000;" x="368.020982" xlink:href="#ma7ef48b8b1" y="137.980193"/>
     <use style="stroke:#000000;" x="370.463423" xlink:href="#ma7ef48b8b1" y="137.881026"/>
     <use style="stroke:#000000;" x="372.896364" xlink:href="#ma7ef48b8b1" y="137.881026"/>
     <use style="stroke:#000000;" x="375.39583" xlink:href="#ma7ef48b8b1" y="137.881026"/>
     <use style="stroke:#000000;" x="377.845397" xlink:href="#ma7ef48b8b1" y="137.825244"/>
     <use style="stroke:#000000;" x="380.230818" xlink:href="#ma7ef48b8b1" y="137.676493"/>
     <use style="stroke:#000000;" x="382.649506" xlink:href="#ma7ef48b8b1" y="137.484356"/>
     <use style="stroke:#000000;" x="385.075316" xlink:href="#ma7ef48b8b1" y="137.168262"/>
     <use style="stroke:#000000;" x="387.527261" xlink:href="#ma7ef48b8b1" y="137.056698"/>
     <use style="stroke:#000000;" x="389.917434" xlink:href="#ma7ef48b8b1" y="136.858363"/>
     <use style="stroke:#000000;" x="392.416901" xlink:href="#ma7ef48b8b1" y="136.783988"/>
     <use style="stroke:#000000;" x="394.916367" xlink:href="#ma7ef48b8b1" y="136.579456"/>
     <use style="stroke:#000000;" x="397.415834" xlink:href="#ma7ef48b8b1" y="136.41211"/>
     <use style="stroke:#000000;" x="399.844016" xlink:href="#ma7ef48b8b1" y="136.195182"/>
     <use style="stroke:#000000;" x="402.312599" xlink:href="#ma7ef48b8b1" y="135.59398"/>
     <use style="stroke:#000000;" x="404.809686" xlink:href="#ma7ef48b8b1" y="135.556793"/>
     <use style="stroke:#000000;" x="407.225996" xlink:href="#ma7ef48b8b1" y="135.556793"/>
     <use style="stroke:#000000;" x="409.704078" xlink:href="#ma7ef48b8b1" y="134.844028"/>
     <use style="stroke:#000000;" x="412.096625" xlink:href="#ma7ef48b8b1" y="134.794444"/>
     <use style="stroke:#000000;" x="414.484419" xlink:href="#ma7ef48b8b1" y="134.558921"/>
     <use style="stroke:#000000;" x="416.876971" xlink:href="#ma7ef48b8b1" y="128.460133"/>
     <use style="stroke:#000000;" x="419.262391" xlink:href="#ma7ef48b8b1" y="133.325529"/>
     <use style="stroke:#000000;" x="421.745226" xlink:href="#ma7ef48b8b1" y="133.325529"/>
     <use style="stroke:#000000;" x="424.242314" xlink:href="#ma7ef48b8b1" y="133.325529"/>
     <use style="stroke:#000000;" x="426.74178" xlink:href="#ma7ef48b8b1" y="133.325529"/>
     <use style="stroke:#000000;" x="429.167589" xlink:href="#ma7ef48b8b1" y="133.325529"/>
     <use style="stroke:#000000;" x="431.664682" xlink:href="#ma7ef48b8b1" y="133.325529"/>
     <use style="stroke:#000000;" x="434.07386" xlink:href="#ma7ef48b8b1" y="133.325529"/>
     <use style="stroke:#000000;" x="436.466412" xlink:href="#ma7ef48b8b1" y="133.325529"/>
     <use style="stroke:#000000;" x="438.858959" xlink:href="#ma7ef48b8b1" y="133.325529"/>
     <use style="stroke:#000000;" x="441.244379" xlink:href="#ma7ef48b8b1" y="133.325529"/>
     <use style="stroke:#000000;" x="443.743846" xlink:href="#ma7ef48b8b1" y="133.288341"/>
     <use style="stroke:#000000;" x="446.240933" xlink:href="#ma7ef48b8b1" y="133.288341"/>
     <use style="stroke:#000000;" x="448.633485" xlink:href="#ma7ef48b8b1" y="133.288341"/>
     <use style="stroke:#000000;" x="451.016526" xlink:href="#ma7ef48b8b1" y="133.257351"/>
     <use style="stroke:#000000;" x="453.515993" xlink:href="#ma7ef48b8b1" y="133.244956"/>
     <use style="stroke:#000000;" x="455.939428" xlink:href="#ma7ef48b8b1" y="133.244956"/>
     <use style="stroke:#000000;" x="458.339107" xlink:href="#ma7ef48b8b1" y="133.244956"/>
     <use style="stroke:#000000;" x="460.838573" xlink:href="#ma7ef48b8b1" y="133.244956"/>
     <use style="stroke:#000000;" x="463.338034" xlink:href="#ma7ef48b8b1" y="133.244956"/>
     <use style="stroke:#000000;" x="465.72346" xlink:href="#ma7ef48b8b1" y="133.244956"/>
     <use style="stroke:#000000;" x="468.222921" xlink:href="#ma7ef48b8b1" y="133.244956"/>
     <use style="stroke:#000000;" x="470.722387" xlink:href="#ma7ef48b8b1" y="133.244956"/>
     <use style="stroke:#000000;" x="473.105434" xlink:href="#ma7ef48b8b1" y="133.232559"/>
     <use style="stroke:#000000;" x="475.6049" xlink:href="#ma7ef48b8b1" y="133.145789"/>
     <use style="stroke:#000000;" x="478.101988" xlink:href="#ma7ef48b8b1" y="133.114798"/>
     <use style="stroke:#000000;" x="480.601454" xlink:href="#ma7ef48b8b1" y="133.114798"/>
     <use style="stroke:#000000;" x="483.100915" xlink:href="#ma7ef48b8b1" y="133.114798"/>
     <use style="stroke:#000000;" x="485.600381" xlink:href="#ma7ef48b8b1" y="133.114798"/>
     <use style="stroke:#000000;" x="488.099848" xlink:href="#ma7ef48b8b1" y="133.114798"/>
     <use style="stroke:#000000;" x="490.599314" xlink:href="#ma7ef48b8b1" y="133.114798"/>
     <use style="stroke:#000000;" x="493.013244" xlink:href="#ma7ef48b8b1" y="133.114798"/>
     <use style="stroke:#000000;" x="495.512711" xlink:href="#ma7ef48b8b1" y="133.114798"/>
     <use style="stroke:#000000;" x="497.943273" xlink:href="#ma7ef48b8b1" y="133.114798"/>
     <use style="stroke:#000000;" x="500.338198" xlink:href="#ma7ef48b8b1" y="133.114798"/>
     <use style="stroke:#000000;" x="502.840038" xlink:href="#ma7ef48b8b1" y="133.114798"/>
     <use style="stroke:#000000;" x="505.310995" xlink:href="#ma7ef48b8b1" y="133.114798"/>
     <use style="stroke:#000000;" x="507.810461" xlink:href="#ma7ef48b8b1" y="133.102403"/>
     <use style="stroke:#000000;" x="510.309922" xlink:href="#ma7ef48b8b1" y="133.102403"/>
     <use style="stroke:#000000;" x="512.711979" xlink:href="#ma7ef48b8b1" y="133.102403"/>
     <use style="stroke:#000000;" x="515.21144" xlink:href="#ma7ef48b8b1" y="133.102403"/>
     <use style="stroke:#000000;" x="517.661012" xlink:href="#ma7ef48b8b1" y="133.102403"/>
     <use style="stroke:#000000;" x="520.048812" xlink:href="#ma7ef48b8b1" y="133.102403"/>
     <use style="stroke:#000000;" x="522.441358" xlink:href="#ma7ef48b8b1" y="133.102403"/>
     <use style="stroke:#000000;" x="524.938445" xlink:href="#ma7ef48b8b1" y="133.102403"/>
     <use style="stroke:#000000;" x="527.437912" xlink:href="#ma7ef48b8b1" y="133.102403"/>
     <use style="stroke:#000000;" x="529.839964" xlink:href="#ma7ef48b8b1" y="133.102403"/>
     <use style="stroke:#000000;" x="532.33943" xlink:href="#ma7ef48b8b1" y="133.102403"/>
     <use style="stroke:#000000;" x="534.84127" xlink:href="#ma7ef48b8b1" y="133.102403"/>
     <use style="stroke:#000000;" x="537.338363" xlink:href="#ma7ef48b8b1" y="133.102403"/>
     <use style="stroke:#000000;" x="539.802187" xlink:href="#ma7ef48b8b1" y="133.102403"/>
     <use style="stroke:#000000;" x="542.299275" xlink:href="#ma7ef48b8b1" y="133.102403"/>
     <use style="stroke:#000000;" x="544.80112" xlink:href="#ma7ef48b8b1" y="133.102403"/>
     <use style="stroke:#000000;" x="547.186541" xlink:href="#ma7ef48b8b1" y="133.102403"/>
     <use style="stroke:#000000;" x="549.686001" xlink:href="#ma7ef48b8b1" y="133.102403"/>
     <use style="stroke:#000000;" x="552.185468" xlink:href="#ma7ef48b8b1" y="133.102403"/>
     <use style="stroke:#000000;" x="554.654045" xlink:href="#ma7ef48b8b1" y="133.102403"/>
     <use style="stroke:#000000;" x="557.041844" xlink:href="#ma7ef48b8b1" y="133.102403"/>
     <use style="stroke:#000000;" x="559.432017" xlink:href="#ma7ef48b8b1" y="133.102403"/>
     <use style="stroke:#000000;" x="561.819811" xlink:href="#ma7ef48b8b1" y="133.102403"/>
     <use style="stroke:#000000;" x="564.297894" xlink:href="#ma7ef48b8b1" y="133.102403"/>
     <use style="stroke:#000000;" x="566.79736" xlink:href="#ma7ef48b8b1" y="133.102403"/>
     <use style="stroke:#000000;" x="569.294453" xlink:href="#ma7ef48b8b1" y="133.102403"/>
     <use style="stroke:#000000;" x="571.74402" xlink:href="#ma7ef48b8b1" y="133.102403"/>
     <use style="stroke:#000000;" x="574.243486" xlink:href="#ma7ef48b8b1" y="133.102403"/>
     <use style="stroke:#000000;" x="576.742953" xlink:href="#ma7ef48b8b1" y="133.102403"/>
     <use style="stroke:#000000;" x="579.242419" xlink:href="#ma7ef48b8b1" y="133.102403"/>
     <use style="stroke:#000000;" x="581.682486" xlink:href="#ma7ef48b8b1" y="133.102403"/>
     <use style="stroke:#000000;" x="584.065527" xlink:href="#ma7ef48b8b1" y="133.102403"/>
     <use style="stroke:#000000;" x="586.567373" xlink:href="#ma7ef48b8b1" y="133.102403"/>
     <use style="stroke:#000000;" x="589.066834" xlink:href="#ma7ef48b8b1" y="133.102403"/>
     <use style="stroke:#000000;" x="591.568679" xlink:href="#ma7ef48b8b1" y="130.604626"/>
     <use style="stroke:#000000;" x="594.06814" xlink:href="#ma7ef48b8b1" y="130.604626"/>
     <use style="stroke:#000000;" x="596.558101" xlink:href="#ma7ef48b8b1" y="130.406292"/>
     <use style="stroke:#000000;" x="599.057567" xlink:href="#ma7ef48b8b1" y="130.406292"/>
     <use style="stroke:#000000;" x="601.452493" xlink:href="#ma7ef48b8b1" y="130.406292"/>
     <use style="stroke:#000000;" x="603.951959" xlink:href="#ma7ef48b8b1" y="130.406292"/>
     <use style="stroke:#000000;" x="606.451426" xlink:href="#ma7ef48b8b1" y="130.400094"/>
     <use style="stroke:#000000;" x="608.950887" xlink:href="#ma7ef48b8b1" y="123.111298"/>
     <use style="stroke:#000000;" x="611.443227" xlink:href="#ma7ef48b8b1" y="123.111298"/>
     <use style="stroke:#000000;" x="613.942693" xlink:href="#ma7ef48b8b1" y="123.111298"/>
     <use style="stroke:#000000;" x="616.36375" xlink:href="#ma7ef48b8b1" y="79.527273"/>
     <use style="stroke:#000000;" x="618.863216" xlink:href="#ma7ef48b8b1" y="79.527273"/>
     <use style="stroke:#000000;" x="621.362683" xlink:href="#ma7ef48b8b1" y="79.527273"/>
     <use style="stroke:#000000;" x="623.862143" xlink:href="#ma7ef48b8b1" y="79.527273"/>
     <use style="stroke:#000000;" x="626.249943" xlink:href="#ma7ef48b8b1" y="79.527273"/>
     <use style="stroke:#000000;" x="628.754162" xlink:href="#ma7ef48b8b1" y="79.527273"/>
     <use style="stroke:#000000;" x="631.151461" xlink:href="#ma7ef48b8b1" y="79.527273"/>
     <use style="stroke:#000000;" x="633.653301" xlink:href="#ma7ef48b8b1" y="79.527273"/>
     <use style="stroke:#000000;" x="636.152767" xlink:href="#ma7ef48b8b1" y="79.527273"/>
     <use style="stroke:#000000;" x="638.652234" xlink:href="#ma7ef48b8b1" y="79.527273"/>
     <use style="stroke:#000000;" x="641.092301" xlink:href="#ma7ef48b8b1" y="79.527273"/>
     <use style="stroke:#000000;" x="643.582262" xlink:href="#ma7ef48b8b1" y="79.527273"/>
     <use style="stroke:#000000;" x="646.084102" xlink:href="#ma7ef48b8b1" y="79.527273"/>
     <use style="stroke:#000000;" x="648.488533" xlink:href="#ma7ef48b8b1" y="79.527273"/>
     <use style="stroke:#000000;" x="650.878706" xlink:href="#ma7ef48b8b1" y="79.527273"/>
     <use style="stroke:#000000;" x="653.311641" xlink:href="#ma7ef48b8b1" y="79.527273"/>
     <use style="stroke:#000000;" x="655.789723" xlink:href="#ma7ef48b8b1" y="79.527273"/>
     <use style="stroke:#000000;" x="658.28919" xlink:href="#ma7ef48b8b1" y="79.527273"/>
     <use style="stroke:#000000;" x="660.79103" xlink:href="#ma7ef48b8b1" y="79.527273"/>
     <use style="stroke:#000000;" x="663.271491" xlink:href="#ma7ef48b8b1" y="79.527273"/>
     <use style="stroke:#000000;" x="665.704427" xlink:href="#ma7ef48b8b1" y="79.527273"/>
     <use style="stroke:#000000;" x="668.206266" xlink:href="#ma7ef48b8b1" y="79.527273"/>
     <use style="stroke:#000000;" x="670.608324" xlink:href="#ma7ef48b8b1" y="79.527273"/>
     <use style="stroke:#000000;" x="673.110164" xlink:href="#ma7ef48b8b1" y="79.527273"/>
     <use style="stroke:#000000;" x="675.607251" xlink:href="#ma7ef48b8b1" y="79.936337"/>
     <use style="stroke:#000000;" x="678.109091" xlink:href="#ma7ef48b8b1" y="80.054099"/>
    </g>
   </g>
   <g id="patch_3">
    <path d="M 100.8 388.8 
L 100.8 64.8 
" style="fill:none;stroke:#000000;stroke-linecap:square;stroke-linejoin:miter;stroke-width:0.8;"/>
   </g>
   <g id="patch_4">
    <path d="M 705.6 388.8 
L 705.6 64.8 
" style="fill:none;stroke:#000000;stroke-linecap:square;stroke-linejoin:miter;stroke-width:0.8;"/>
   </g>
   <g id="patch_5">
    <path d="M 100.8 388.8 
L 705.6 388.8 
" style="fill:none;stroke:#000000;stroke-linecap:square;stroke-linejoin:miter;stroke-width:0.8;"/>
   </g>
   <g id="patch_6">
    <path d="M 100.8 64.8 
L 705.6 64.8 
" style="fill:none;stroke:#000000;stroke-linecap:square;stroke-linejoin:miter;stroke-width:0.8;"/>
   </g>
   <g id="text_16">
    <!-- umap 20K -->
    <defs>
     <path d="M 34.28125 27.484375 
Q 23.390625 27.484375 19.1875 25 
Q 14.984375 22.515625 14.984375 16.5 
Q 14.984375 11.71875 18.140625 8.90625 
Q 21.296875 6.109375 26.703125 6.109375 
Q 34.1875 6.109375 38.703125 11.40625 
Q 43.21875 16.703125 43.21875 25.484375 
L 43.21875 27.484375 
z
M 52.203125 31.203125 
L 52.203125 0 
L 43.21875 0 
L 43.21875 8.296875 
Q 40.140625 3.328125 35.546875 0.953125 
Q 30.953125 -1.421875 24.3125 -1.421875 
Q 15.921875 -1.421875 10.953125 3.296875 
Q 6 8.015625 6 15.921875 
Q 6 25.140625 12.171875 29.828125 
Q 18.359375 34.515625 30.609375 34.515625 
L 43.21875 34.515625 
L 43.21875 35.40625 
Q 43.21875 41.609375 39.140625 45 
Q 35.0625 48.390625 27.6875 48.390625 
Q 23 48.390625 18.546875 47.265625 
Q 14.109375 46.140625 10.015625 43.890625 
L 10.015625 52.203125 
Q 14.9375 54.109375 19.578125 55.046875 
Q 24.21875 56 28.609375 56 
Q 40.484375 56 46.34375 49.84375 
Q 52.203125 43.703125 52.203125 31.203125 
" id="DejaVuSans-61"/>
     <path d="M 18.109375 8.203125 
L 18.109375 -20.796875 
L 9.078125 -20.796875 
L 9.078125 54.6875 
L 18.109375 54.6875 
L 18.109375 46.390625 
Q 20.953125 51.265625 25.265625 53.625 
Q 29.59375 56 35.59375 56 
Q 45.5625 56 51.78125 48.09375 
Q 58.015625 40.1875 58.015625 27.296875 
Q 58.015625 14.40625 51.78125 6.484375 
Q 45.5625 -1.421875 35.59375 -1.421875 
Q 29.59375 -1.421875 25.265625 0.953125 
Q 20.953125 3.328125 18.109375 8.203125 
M 48.6875 27.296875 
Q 48.6875 37.203125 44.609375 42.84375 
Q 40.53125 48.484375 33.40625 48.484375 
Q 26.265625 48.484375 22.1875 42.84375 
Q 18.109375 37.203125 18.109375 27.296875 
Q 18.109375 17.390625 22.1875 11.75 
Q 26.265625 6.109375 33.40625 6.109375 
Q 40.53125 6.109375 44.609375 11.75 
Q 48.6875 17.390625 48.6875 27.296875 
" id="DejaVuSans-70"/>
     <path d="M 9.8125 72.90625 
L 19.671875 72.90625 
L 19.671875 42.09375 
L 52.390625 72.90625 
L 65.09375 72.90625 
L 28.90625 38.921875 
L 67.671875 0 
L 54.6875 0 
L 19.671875 35.109375 
L 19.671875 0 
L 9.8125 0 
z
" id="DejaVuSans-4b"/>
    </defs>
    <g transform="translate(372.590625 58.8)scale(0.12 -0.12)">
     <use xlink:href="#DejaVuSans-75"/>
     <use x="63.378906" xlink:href="#DejaVuSans-6d"/>
     <use x="160.791016" xlink:href="#DejaVuSans-61"/>
     <use x="222.070312" xlink:href="#DejaVuSans-70"/>
     <use x="285.546875" xlink:href="#DejaVuSans-20"/>
     <use x="317.333984" xlink:href="#DejaVuSans-32"/>
     <use x="380.957031" xlink:href="#DejaVuSans-30"/>
     <use x="444.580078" xlink:href="#DejaVuSans-4b"/>
    </g>
   </g>
   <g id="legend_1">
    <g id="patch_7">
     <path d="M 712.6 235.639063 
L 931.785937 235.639063 
Q 933.785937 235.639063 933.785937 233.639063 
L 933.785937 219.960938 
Q 933.785937 217.960938 931.785937 217.960938 
L 712.6 217.960938 
Q 710.6 217.960938 710.6 219.960938 
L 710.6 233.639063 
Q 710.6 235.639063 712.6 235.639063 
z
" style="fill:#ffffff;opacity:0.5;stroke:#cccccc;stroke-linejoin:miter;"/>
    </g>
    <g id="line2d_28">
     <path d="M 714.6 226.059375 
L 734.6 226.059375 
" style="fill:none;stroke:#000000;stroke-linecap:square;stroke-width:1.5;"/>
    </g>
    <g id="line2d_29">
     <g>
      <use style="stroke:#000000;" x="724.6" xlink:href="#ma7ef48b8b1" y="226.059375"/>
     </g>
    </g>
    <g id="text_17">
     <!-- 18 / 03 / 2018 - start at 15:40:53.911 -->
     <defs>
      <path d="M 31.78125 34.625 
Q 24.75 34.625 20.71875 30.859375 
Q 16.703125 27.09375 16.703125 20.515625 
Q 16.703125 13.921875 20.71875 10.15625 
Q 24.75 6.390625 31.78125 6.390625 
Q 38.8125 6.390625 42.859375 10.171875 
Q 46.921875 13.96875 46.921875 20.515625 
Q 46.921875 27.09375 42.890625 30.859375 
Q 38.875 34.625 31.78125 34.625 
M 21.921875 38.8125 
Q 15.578125 40.375 12.03125 44.71875 
Q 8.5 49.078125 8.5 55.328125 
Q 8.5 64.0625 14.71875 69.140625 
Q 20.953125 74.21875 31.78125 74.21875 
Q 42.671875 74.21875 48.875 69.140625 
Q 55.078125 64.0625 55.078125 55.328125 
Q 55.078125 49.078125 51.53125 44.71875 
Q 48 40.375 41.703125 38.8125 
Q 48.828125 37.15625 52.796875 32.3125 
Q 56.78125 27.484375 56.78125 20.515625 
Q 56.78125 9.90625 50.3125 4.234375 
Q 43.84375 -1.421875 31.78125 -1.421875 
Q 19.734375 -1.421875 13.25 4.234375 
Q 6.78125 9.90625 6.78125 20.515625 
Q 6.78125 27.484375 10.78125 32.3125 
Q 14.796875 37.15625 21.921875 38.8125 
M 18.3125 54.390625 
Q 18.3125 48.734375 21.84375 45.5625 
Q 25.390625 42.390625 31.78125 42.390625 
Q 38.140625 42.390625 41.71875 45.5625 
Q 45.3125 48.734375 45.3125 54.390625 
Q 45.3125 60.0625 41.71875 63.234375 
Q 38.140625 66.40625 31.78125 66.40625 
Q 25.390625 66.40625 21.84375 63.234375 
Q 18.3125 60.0625 18.3125 54.390625 
" id="DejaVuSans-38"/>
      <path d="M 25.390625 72.90625 
L 33.6875 72.90625 
L 8.296875 -9.28125 
L 0 -9.28125 
z
" id="DejaVuSans-2f"/>
      <path d="M 40.578125 39.3125 
Q 47.65625 37.796875 51.625 33 
Q 55.609375 28.21875 55.609375 21.1875 
Q 55.609375 10.40625 48.1875 4.484375 
Q 40.765625 -1.421875 27.09375 -1.421875 
Q 22.515625 -1.421875 17.65625 -0.515625 
Q 12.796875 0.390625 7.625 2.203125 
L 7.625 11.71875 
Q 11.71875 9.328125 16.59375 8.109375 
Q 21.484375 6.890625 26.8125 6.890625 
Q 36.078125 6.890625 40.9375 10.546875 
Q 45.796875 14.203125 45.796875 21.1875 
Q 45.796875 27.640625 41.28125 31.265625 
Q 36.765625 34.90625 28.71875 34.90625 
L 20.21875 34.90625 
L 20.21875 43.015625 
L 29.109375 43.015625 
Q 36.375 43.015625 40.234375 45.921875 
Q 44.09375 48.828125 44.09375 54.296875 
Q 44.09375 59.90625 40.109375 62.90625 
Q 36.140625 65.921875 28.71875 65.921875 
Q 24.65625 65.921875 20.015625 65.03125 
Q 15.375 64.15625 9.8125 62.3125 
L 9.8125 71.09375 
Q 15.4375 72.65625 20.34375 73.4375 
Q 25.25 74.21875 29.59375 74.21875 
Q 40.828125 74.21875 47.359375 69.109375 
Q 53.90625 64.015625 53.90625 55.328125 
Q 53.90625 49.265625 50.4375 45.09375 
Q 46.96875 40.921875 40.578125 39.3125 
" id="DejaVuSans-33"/>
      <path d="M 4.890625 31.390625 
L 31.203125 31.390625 
L 31.203125 23.390625 
L 4.890625 23.390625 
z
" id="DejaVuSans-2d"/>
      <path d="M 11.71875 12.40625 
L 22.015625 12.40625 
L 22.015625 0 
L 11.71875 0 
z
M 11.71875 51.703125 
L 22.015625 51.703125 
L 22.015625 39.3125 
L 11.71875 39.3125 
z
" id="DejaVuSans-3a"/>
      <path d="M 37.796875 64.3125 
L 12.890625 25.390625 
L 37.796875 25.390625 
z
M 35.203125 72.90625 
L 47.609375 72.90625 
L 47.609375 25.390625 
L 58.015625 25.390625 
L 58.015625 17.1875 
L 47.609375 17.1875 
L 47.609375 0 
L 37.796875 0 
L 37.796875 17.1875 
L 4.890625 17.1875 
L 4.890625 26.703125 
z
" id="DejaVuSans-34"/>
      <path d="M 10.6875 12.40625 
L 21 12.40625 
L 21 0 
L 10.6875 0 
z
" id="DejaVuSans-2e"/>
      <path d="M 10.984375 1.515625 
L 10.984375 10.5 
Q 14.703125 8.734375 18.5 7.8125 
Q 22.3125 6.890625 25.984375 6.890625 
Q 35.75 6.890625 40.890625 13.453125 
Q 46.046875 20.015625 46.78125 33.40625 
Q 43.953125 29.203125 39.59375 26.953125 
Q 35.25 24.703125 29.984375 24.703125 
Q 19.046875 24.703125 12.671875 31.3125 
Q 6.296875 37.9375 6.296875 49.421875 
Q 6.296875 60.640625 12.9375 67.421875 
Q 19.578125 74.21875 30.609375 74.21875 
Q 43.265625 74.21875 49.921875 64.515625 
Q 56.59375 54.828125 56.59375 36.375 
Q 56.59375 19.140625 48.40625 8.859375 
Q 40.234375 -1.421875 26.421875 -1.421875 
Q 22.703125 -1.421875 18.890625 -0.6875 
Q 15.09375 0.046875 10.984375 1.515625 
M 30.609375 32.421875 
Q 37.25 32.421875 41.125 36.953125 
Q 45.015625 41.5 45.015625 49.421875 
Q 45.015625 57.28125 41.125 61.84375 
Q 37.25 66.40625 30.609375 66.40625 
Q 23.96875 66.40625 20.09375 61.84375 
Q 16.21875 57.28125 16.21875 49.421875 
Q 16.21875 41.5 20.09375 36.953125 
Q 23.96875 32.421875 30.609375 32.421875 
" id="DejaVuSans-39"/>
     </defs>
     <g transform="translate(742.6 229.559375)scale(0.1 -0.1)">
      <use xlink:href="#DejaVuSans-31"/>
      <use x="63.623047" xlink:href="#DejaVuSans-38"/>
      <use x="127.246094" xlink:href="#DejaVuSans-20"/>
      <use x="159.033203" xlink:href="#DejaVuSans-2f"/>
      <use x="192.724609" xlink:href="#DejaVuSans-20"/>
      <use x="224.511719" xlink:href="#DejaVuSans-30"/>
      <use x="288.134766" xlink:href="#DejaVuSans-33"/>
      <use x="351.757812" xlink:href="#DejaVuSans-20"/>
      <use x="383.544922" xlink:href="#DejaVuSans-2f"/>
      <use x="417.236328" xlink:href="#DejaVuSans-20"/>
      <use x="449.023438" xlink:href="#DejaVuSans-32"/>
      <use x="512.646484" xlink:href="#DejaVuSans-30"/>
      <use x="576.269531" xlink:href="#DejaVuSans-31"/>
      <use x="639.892578" xlink:href="#DejaVuSans-38"/>
      <use x="703.515625" xlink:href="#DejaVuSans-20"/>
      <use x="735.302734" xlink:href="#DejaVuSans-2d"/>
      <use x="771.386719" xlink:href="#DejaVuSans-20"/>
      <use x="803.173828" xlink:href="#DejaVuSans-73"/>
      <use x="855.273438" xlink:href="#DejaVuSans-74"/>
      <use x="894.482422" xlink:href="#DejaVuSans-61"/>
      <use x="955.761719" xlink:href="#DejaVuSans-72"/>
      <use x="996.875" xlink:href="#DejaVuSans-74"/>
      <use x="1036.083984" xlink:href="#DejaVuSans-20"/>
      <use x="1067.871094" xlink:href="#DejaVuSans-61"/>
      <use x="1129.150391" xlink:href="#DejaVuSans-74"/>
      <use x="1168.359375" xlink:href="#DejaVuSans-20"/>
      <use x="1200.146484" xlink:href="#DejaVuSans-31"/>
      <use x="1263.769531" xlink:href="#DejaVuSans-35"/>
      <use x="1327.392578" xlink:href="#DejaVuSans-3a"/>
      <use x="1361.083984" xlink:href="#DejaVuSans-34"/>
      <use x="1424.707031" xlink:href="#DejaVuSans-30"/>
      <use x="1488.330078" xlink:href="#DejaVuSans-3a"/>
      <use x="1522.021484" xlink:href="#DejaVuSans-35"/>
      <use x="1585.644531" xlink:href="#DejaVuSans-33"/>
      <use x="1649.267578" xlink:href="#DejaVuSans-2e"/>
      <use x="1681.054688" xlink:href="#DejaVuSans-39"/>
      <use x="1744.677734" xlink:href="#DejaVuSans-31"/>
      <use x="1808.300781" xlink:href="#DejaVuSans-31"/>
     </g>
    </g>
   </g>
  </g>
 </g>
 <defs>
  <clipPath id="p05e5fa576f">
   <rect height="324" width="604.8" x="100.8" y="64.8"/>
  </clipPath>
 </defs>
</svg>
